<svg xmlns="http://www.w3.org/2000/svg" version="1.1" xmlns:xlink="http://www.w3.org/1999/xlink" xmlns:svgjs="http://svgjs.dev/svgjs" viewBox="0 0 1422 800"><defs><filter id="uuunion-blur" x="-100%" y="-100%" width="400%" height="400%" color-interpolation-filters="sRGB">
        <feGaussianBlur in="SourceGraphic" stdDeviation="0 0" result="blur"></feGaussianBlur>
        <feDropShadow stdDeviation="0" in="blur" dx="0" dy="0" flood-color="hsl(272, 100%, 50%)" flood-opacity="1" x="0%" y="0%" width="100%" height="100%"></feDropShadow>
      </filter><filter id="uuunion-blur2" x="-100%" y="-100%" width="400%" height="400%" color-interpolation-filters="sRGB">
        <feGaussianBlur in="SourceGraphic" stdDeviation="0 0" result="blur"></feGaussianBlur>
        <feDropShadow stdDeviation="0" in="blur" dx="-0" dy="-0" flood-color="hsl(272, 100%, 50%)" flood-opacity="1" x="0%" y="0%" width="100%" height="100%"></feDropShadow>
      </filter><linearGradient gradientTransform="rotate(139, 0.5, 0.5)" x1="50%" y1="0%" x2="50%" y2="100%" id="uuunion-grad"><stop stop-color="hsl(302, 100%, 35%)" offset="10%"></stop><stop stop-color="hsl(272, 100%, 50%)" offset="90%"></stop></linearGradient><linearGradient gradientTransform="rotate(138, 0.5, 0.5)" x1="50%" y1="0%" x2="50%" y2="100%" id="uuunion-grad2"><stop stop-color="hsl(302, 100%, 35%)" offset="25%"></stop><stop stop-color="hsl(272, 100%, 50%)" offset="100%"></stop></linearGradient><linearGradient gradientTransform="rotate(309, 0.5, 0.5)" x1="50%" y1="0%" x2="50%" y2="100%" id="uuunion-grad3"><stop stop-color="hsl(302, 100%, 35%)" offset="0%"></stop><stop stop-color="hsl(272, 100%, 50%)" offset="75%"></stop></linearGradient></defs><path d="M-108.73 -84.26Q-96.41 -84.49 -84.09 -84.26 -71.77 -83.58 -59.45 -82.52 -47.13 -81.2 -34.81 -79.75 -22.5 -78.33 -10.18 -77.08 2.13 -76.14 14.45 -75.6 26.77 -75.52 39.09 -75.91 51.41 -76.73 63.73 -77.89 76.05 -79.27 88.37 -80.73 100.69 -82.11 113 -83.27 125.32 -84.08 137.64 -84.47 149.96 -84.39 162.28 -83.85 174.6 -82.9 186.92 -81.65 199.24 -80.23 211.56 -78.78 223.88 -77.46 236.19 -76.4 248.51 -75.73 260.83 -75.5 273.15 -75.74 285.47 -76.42 297.79 -77.48 310.11 -78.81 322.43 -80.26 334.75 -81.68 347.07 -82.92 359.38 -83.86 371.7 -84.39 384.02 -84.47 396.34 -84.07 408.66 -83.25 420.98 -82.08 433.3 -80.7 445.62 -79.24 457.94 -77.86 470.26 -76.71 482.58 -75.9 494.89 -75.52 507.21 -75.61 519.53 -76.15 531.85 -77.1 544.17 -78.36 556.49 -79.78 568.81 -81.23 581.13 -82.55 593.45 -83.6 605.77 -84.27 618.09 -84.49 630.4 -84.25 642.72 -83.56 655.04 -82.49 667.36 -81.16 679.68 -79.71 692 -78.29 704.32 -77.05 716.64 -76.12 728.96 -75.59 741.28 -75.53 753.6 -75.93 765.91 -76.76 778.23 -77.93 790.55 -79.31 802.87 -80.77 815.19 -82.14 827.51 -83.29 839.83 -84.1 852.15 -84.47 864.47 -84.38 876.79 -83.82 889.11 -82.87 901.42 -81.61 913.74 -80.19 926.06 -78.74 938.38 -77.43 950.7 -76.38 963.02 -75.71 975.34 -75.5 987.66 -75.75 999.98 -76.45 1012.3 -77.52 1024.62 -78.85 1036.93 -80.3 1049.25 -81.72 1061.57 -82.95 1073.89 -83.88 1086.21 -84.4 1098.53 -84.46 1110.85 -84.05 1123.17 -83.22 1135.49 -82.05 1147.81 -80.66 1160.13 -79.2 1172.45 -77.83 1184.76 -76.68 1197.08 -75.88 1209.4 -75.51 1221.72 -75.62 1234.04 -76.18 1246.36 -77.14 1258.68 -78.4 1271 -79.82 1283.32 -81.27 1295.64 -82.58 1307.96 -83.62 1320.27 -84.28 1332.59 -84.49 1344.91 -84.23 1357.23 -83.53 1369.55 -82.45 1381.87 -81.12 1394.19 -79.67 1406.51 -78.25 1418.83 -77.02 1431.15 -76.1 1443.47 -75.58 1455.79 -75.53 1468.1 -75.95 1478.15 -60.02 1492.89 -44.09 1511.54 -28.16 1533.07 -12.24 1556.29 3.68 1579.95 19.61 1602.75 35.54 1623.44 51.46 1640.89 67.39 1654.15 83.32 1662.48 99.25 1665.45 115.17 1662.87 131.1 1654.91 147.03 1641.98 162.96 1624.79 178.89 1604.3 194.81 1581.61 210.74 1557.97 226.67 1534.67 242.6 1512.98 258.52 1494.1 274.45 1479.04 290.38 1468.65 306.31 1463.48 322.23 1463.81 338.16 1469.64 354.09 1480.63 370.02 1496.2 385.94 1515.48 401.87 1537.43 417.8 1560.84 433.73 1584.43 449.65 1606.92 465.58 1627.07 481.51 1643.78 497.44 1656.14 513.37 1663.48 529.29 1665.38 545.22 1661.76 561.15 1652.79 577.08 1638.99 593 1621.09 608.93 1600.08 624.86 1577.11 640.79 1553.43 656.71 1530.35 672.64 1509.11 688.57 1490.88 704.5 1476.67 720.42 1467.24 736.35 1463.11 752.28 1464.51 768.21 1471.36 784.14 1483.28 800.06 1499.63 815.99 1519.52 831.92 1541.84 847.85 1565.39 863.77 1588.87 879.7 1611 895.63 1630.57 911.56 1646.51 927.48 1657.96 943.41 1643.64 949.93 1629.32 949.11 1615 941.06 1600.68 926.6 1586.36 907.26 1572.04 885.07 1557.72 862.34 1543.41 841.46 1529.09 824.62 1514.77 813.58 1500.45 809.51 1486.13 812.82 1471.81 823.17 1457.49 839.47 1443.17 860.02 1428.86 882.67 1414.54 905.03 1400.22 924.78 1385.9 939.82 1371.58 948.6 1357.26 950.19 1342.94 944.42 1328.62 931.9 1314.31 913.95 1299.99 892.43 1285.67 869.61 1271.35 847.88 1257.03 829.51 1242.71 816.44 1228.39 810.02 1214.07 810.94 1199.76 819.1 1185.44 833.63 1171.12 853.03 1156.8 875.25 1142.48 897.97 1128.16 918.8 1113.84 935.57 1099.52 946.52 1085.2 950.49 1070.89 947.08 1056.57 936.63 1042.25 920.25 1027.93 899.65 1013.61 877 999.29 854.65 984.97 834.96 970.65 819.99 956.34 811.31 942.02 809.83 927.7 815.7 913.38 828.31 899.06 846.33 884.74 867.88 870.42 890.7 856.1 912.4 841.79 930.7 827.47 943.69 813.15 950.01 798.83 948.98 784.51 940.73 770.19 926.11 755.87 906.66 741.56 884.42 727.24 861.71 712.92 840.92 698.6 824.22 684.28 813.37 669.96 809.5 655.64 813.02 641.32 823.55 627.01 840 612.69 860.65 598.37 883.32 584.05 905.64 569.73 925.27 555.41 940.16 541.09 948.75 526.77 950.13 512.46 944.16 498.14 931.46 483.82 913.38 469.5 891.79 455.18 868.97 440.86 847.3 426.54 829.06 412.22 816.16 397.91 809.95 383.59 811.07 369.27 819.42 354.95 834.12 340.63 853.63 326.31 875.89 311.99 898.59 297.68 919.34 283.36 935.97 269.04 946.73 254.72 950.49 240.4 946.87 226.08 936.24 211.76 919.72 197.44 899.03 183.13 876.35 168.81 854.05 154.49 834.47 140.17 819.66 125.85 811.17 111.53 809.9 97.21 815.97 82.9 828.75 68.58 846.9 54.26 868.52 39.94 891.34 25.62 912.97 11.3 931.15 -3.01 943.97 -17.33 950.08 -31.64 948.85 -45.96 940.4 -60.28 925.62 -74.6 906.07 -88.92 883.77 -103.24 861.09 -117.56 840.38 -131.87 823.83 -146.19 813.16 -165.68 804.35 -165.3 785.17 -158.48 771.15 -150.77 757.13 -142.6 743.1 -134.4 729.08 -126.63 715.06 -119.71 701.03 -114.01 687.01 -109.86 672.99 -107.48 658.96 -106.99 644.94 -108.43 630.92 -111.71 616.89 -116.66 602.87 -123.01 588.85 -130.4 574.82 -138.44 560.8 -146.68 546.78 -154.68 532.75 -161.99 518.73 -168.23 504.71 -173.03 490.68 -176.15 476.66 -177.42 462.64 -176.75 448.61 -174.2 434.59 -169.9 420.57 -164.08 406.55 -157.06 392.52 -149.23 378.5 -141.02 364.48 -132.86 350.45 -125.22 336.43 -118.51 322.41 -113.09 308.38 -109.26 294.36 -107.23 280.34 -107.12 266.31 -108.92 252.29 -112.54 238.27 -117.78 224.24 -124.35 210.22 -131.9 196.2 -140.02 182.17 -148.25 168.15 -156.15 154.13 -163.28 140.1 -169.27 126.08 -173.77 112.06 -176.54 98.03 -177.44 84.01 -176.41 69.99 -173.5 55.96 -168.89 41.94 -162.81 27.92 -155.61 13.9 -147.67 -0.12 -139.43 -14.14 -131.35 -28.16 -123.85 -42.19 -117.36 -56.21 -112.22 -70.23 -108.73 -84.26" fill="url(#uuunion-grad)"></path><path d="M-108.74 -84.26Q-112.23 -70.23 -117.37 -56.21 -123.86 -42.19 -131.36 -28.16 -139.44 -14.14 -147.68 -0.12 -155.62 13.9 -162.82 27.92 -168.9 41.94 -173.51 55.97 -176.42 69.99 -177.45 84.01 -176.55 98.04 -173.78 112.06 -169.28 126.08 -163.29 140.11 -156.16 154.13 -148.26 168.15 -140.03 182.18 -131.91 196.2 -124.36 210.22 -117.79 224.25 -112.55 238.27 -108.93 252.29 -107.13 266.32 -107.24 280.34 -109.27 294.36 -113.1 308.39 -118.52 322.41 -125.23 336.43 -132.52 356.59 -123.3 362.71 -114.43 364.44 -105.57 367.84 -96.71 372.74 -87.84 378.92 -78.98 386.08 -70.11 393.9 -61.25 402 -52.39 410 -43.52 417.54 -34.66 424.26 -25.79 429.84 -16.93 434.03 -0.18 437.25 2.77 437.45 14.95 432.27 27.04 424.55 39.03 414.66 50.93 403.1 62.73 390.51 74.44 377.59 86.05 365.04 97.57 353.56 108.99 343.73 120.32 336.01 131.55 330.72 142.7 327.99 153.75 327.74 164.72 329.75 175.6 333.62 186.41 338.81 197.14 344.71 207.8 350.64 218.39 355.97 228.92 360.07 239.38 362.45 249.8 362.72 260.17 360.68 270.5 356.26 280.79 349.59 291.05 340.97 301.28 330.81 311.5 319.65 321.7 308.08 331.9 296.71 342.1 286.15 352.31 276.92 362.53 269.45 372.77 264.02 383.03 260.77 393.33 259.69 403.67 260.58 414.05 263.14 424.47 266.93 434.96 271.42 445.5 276.07 456.12 280.29 466.8 283.56 477.55 285.45 488.39 285.59 499.31 283.79 510.32 279.98 521.42 274.23 532.61 266.78 543.9 257.95 555.28 248.19 566.77 237.98 578.36 227.86 590.05 218.32 601.85 209.82 613.74 202.73 625.75 197.32 637.85 193.72 650.06 191.94 662.36 191.85 674.77 193.2 687.26 195.64 699.86 198.74 712.54 202.06 725.3 205.11 738.15 207.45 751.07 208.7 764.07 208.56 777.13 206.85 790.25 203.49 803.43 198.52 816.65 192.12 829.92 184.54 843.22 176.13 856.55 167.29 869.9 158.45 883.26 150.01 896.62 142.36 909.98 135.8 923.33 130.57 936.66 126.78 949.96 124.46 963.23 123.51 976.45 123.75 989.61 124.91 1002.71 126.66 1015.74 128.63 1028.69 130.45 1041.56 131.76 1054.32 132.26 1066.98 131.69 1079.53 129.91 1091.97 126.83 1104.27 122.5 1116.44 117.02 1128.47 110.6 1140.35 103.49 1152.08 96.01 1163.65 88.48 1175.05 81.21 1186.29 74.51 1197.35 68.62 1208.23 63.71 1218.94 59.89 1229.45 57.18 1239.79 55.52 1249.93 54.77 1259.88 54.73 1269.64 55.16 1279.21 55.79 1288.59 56.34 1297.78 56.54 1306.78 56.16 1315.6 55.03 1324.23 53.01 1332.68 50.07 1340.95 46.21 1349.06 41.53 1356.99 36.16 1364.76 30.29 1372.38 24.13 1379.85 17.92 1387.18 11.89 1394.37 6.24 1408.34 -2.92 1422 -9.92 1397.72 -26.22 1375.26 -42.53 1356.26 -58.84 1342.15 -75.14 1333.97 -91.45 1332.33 -107.75 1337.26 -132.21 1325.65 -140.33 1314.15 -140.26 1302.64 -140.17 1291.13 -140.07 1279.62 -139.96 1268.11 -139.85 1256.6 -139.75 1245.09 -139.68 1233.58 -139.63 1222.07 -139.62 1210.56 -139.64 1199.06 -139.69 1187.55 -139.77 1176.04 -139.87 1164.53 -139.98 1153.02 -140.09 1141.51 -140.2 1130 -140.28 1118.49 -140.34 1106.98 -140.37 1095.48 -140.36 1083.97 -140.32 1072.46 -140.26 1060.95 -140.17 1049.44 -140.06 1037.93 -139.95 1026.42 -139.84 1014.91 -139.75 1003.4 -139.67 991.89 -139.63 980.39 -139.62 968.88 -139.64 957.37 -139.7 945.86 -139.78 934.35 -139.88 922.84 -139.99 911.33 -140.1 899.82 -140.2 888.31 -140.29 876.81 -140.34 865.3 -140.37 853.79 -140.36 842.28 -140.32 830.77 -140.25 819.26 -140.16 807.75 -140.05 796.24 -139.94 784.73 -139.83 773.22 -139.74 761.72 -139.67 750.21 -139.63 738.7 -139.62 727.19 -139.65 715.68 -139.7 704.17 -139.79 692.66 -139.89 681.15 -140 669.64 -140.11 658.14 -140.21 646.63 -140.29 635.12 -140.35 623.61 -140.37 612.1 -140.36 600.59 -140.32 589.08 -140.24 577.57 -140.15 566.06 -140.04 554.55 -139.93 543.05 -139.82 531.54 -139.73 520.03 -139.66 508.52 -139.63 497.01 -139.62 485.5 -139.65 473.99 -139.71 462.48 -139.79 450.97 -139.9 439.47 -140.01 427.96 -140.12 416.45 -140.22 404.94 -140.3 393.43 -140.35 381.92 -140.37 370.41 -140.36 358.9 -140.31 347.39 -140.24 335.88 -140.14 324.38 -140.03 312.87 -139.92 301.36 -139.82 289.85 -139.73 278.34 -139.66 266.83 -139.63 255.32 -139.62 243.81 -139.65 232.3 -139.72 220.79 -139.8 209.29 -139.91 197.78 -140.02 186.27 -140.13 174.76 -140.23 163.25 -140.3 151.74 -140.35 140.23 -140.37 128.72 -140.35 117.21 -140.31 105.71 -140.23 94.2 -140.13 82.69 -140.02 71.18 -139.91 59.67 -139.81 48.16 -139.72 36.65 -139.66 25.14 -139.62 13.63 -139.62 2.12 -139.66 -9.37 -139.72 -20.88 -139.81 -32.39 -139.91 -43.9 -140.03 -55.41 -140.14 -66.92 -140.23 -78.43 -140.31 -89.94 -140.35 -101.45 -140.37 -115.32 -133.28 -112.76 -112.17 -109.79 -98.19 -108.74 -84.26" fill="url(#uuunion-grad2)" filter="url(#uuunion-blur)"></path><path d="M1335.81 288.25Q1344.01 289.85 1352.22 292.86 1360.42 297.15 1368.63 302.5 1376.84 308.68 1385.04 315.38 1393.25 322.3 1401.45 329.11 1409.66 335.49 1417.86 341.15 1434.28 348.59 1450.69 351.99 1458.89 351.11 1467.1 348.78 1478.46 367.36 1496.2 385.94 1518.98 404.53 1545.13 423.11 1572.69 441.69 1599.62 460.27 1623.92 478.86 1643.78 497.44 1657.73 516.02 1664.73 534.6 1664.26 553.18 1656.35 571.77 1641.59 590.35 1621.09 608.93 1596.36 627.51 1569.23 646.1 1541.74 664.68 1515.91 683.26 1493.67 701.84 1476.67 720.42 1466.17 739.01 1462.96 757.59 1467.27 776.17 1478.78 794.75 1496.64 813.34 1519.52 831.92 1545.71 850.5 1573.28 869.08 1600.18 887.67 1624.4 906.25 1644.15 924.83 1657.96 943.41 1644.82 949.66 1631.69 949.76 1618.55 943.7 1605.42 932.02 1592.29 915.74 1579.15 896.3 1566.02 875.43 1552.88 854.96 1539.75 836.7 1526.62 822.26 1513.48 812.92 1500.35 809.5 1487.21 812.31 1474.08 821.09 1460.95 835.08 1447.81 853.03 1434.68 873.36 1421.54 894.27 1408.41 913.93 1395.28 930.59 1382.14 942.78 1369.01 949.43 1355.88 949.95 1342.74 944.29 1329.61 932.96 1316.47 916.94 1303.34 897.67 1290.21 876.84 1277.07 856.28 1263.94 837.82 1250.8 823.08 1237.67 813.37 1224.54 809.54 1211.4 811.93 1198.27 820.33 1185.13 834 1172 851.73 1158.87 871.95 1145.73 892.89 1132.6 912.69 1119.46 929.6 1106.33 942.13 1093.2 949.17 1080.06 950.11 1066.93 944.86 1053.79 933.88 1040.66 918.14 1027.53 899.03 1014.39 878.24 1001.26 857.61 988.12 838.96 974.99 823.92 961.86 813.84 948.72 809.6 935.59 811.57 922.45 819.59 909.32 832.94 896.19 850.44 883.05 870.56 869.92 891.5 856.78 911.43 843.65 928.59 830.52 941.45 817.38 948.89 804.25 950.24 791.11 945.4 777.98 934.77 764.85 919.32 751.71 900.39 738.58 879.65 725.44 858.95 712.31 840.11 699.18 824.79 686.04 814.34 672.91 809.69 659.77 811.25 646.64 818.88 633.51 831.9 620.37 849.17 607.24 869.16 594.1 890.11 580.97 910.16 567.84 927.56 554.7 940.75 541.57 948.58 528.44 950.35 515.3 945.91 502.17 935.65 489.03 920.48 475.9 901.73 462.77 881.06 449.63 860.3 436.5 841.28 423.36 825.68 410.23 814.87 397.1 809.81 383.96 810.95 370.83 818.19 357.69 830.88 344.56 847.91 331.43 867.77 318.29 888.71 305.16 908.88 292.02 926.51 278.89 940.02 265.76 948.24 252.62 950.43 239.49 946.4 226.35 936.51 213.22 921.62 200.09 903.07 186.95 882.47 173.82 861.66 160.68 842.47 147.55 826.59 134.42 815.42 121.28 809.96 108.15 810.68 95.01 817.52 81.88 829.88 68.75 846.66 55.61 866.38 42.48 887.31 29.34 907.59 16.21 925.44 3.08 939.27 -15.78 943.83 -19.33 929.1 -16.7 918.41 -13.69 907.72 -10.38 897.04 -6.83 886.35 -1.03 870.33 1.58 865 16.23 855.34 30.66 840.08 44.84 820.11 58.77 796.77 72.44 771.66 85.85 746.54 99 723.14 111.9 703.01 124.56 687.38 136.99 677.05 149.2 672.32 161.22 672.97 173.08 678.29 184.78 687.15 196.37 698.12 207.86 709.58 219.29 719.9 230.69 727.58 242.08 731.38 253.49 730.43 264.96 724.32 276.5 713.12 288.14 697.35 299.91 677.97 311.83 656.22 323.91 633.58 336.17 611.55 348.62 591.58 361.26 574.89 374.11 562.39 387.15 554.58 400.4 551.53 413.83 552.87 427.45 557.82 441.23 565.3 455.16 574.01 469.22 582.55 483.38 589.57 497.62 593.87 511.9 594.55 526.21 591.02 540.5 583.12 554.74 571.07 568.9 555.48 582.95 537.27 596.85 517.59 610.58 497.69 624.09 478.84 637.37 462.16 650.39 448.58 663.11 438.7 675.53 432.79 687.62 430.73 699.38 432.07 710.79 436.03 721.84 441.64 732.55 447.76 742.91 453.26 752.93 457.06 762.63 458.29 772.03 456.31 781.15 450.8 790.02 441.77 798.66 429.56 807.56 422.01 816.42 413.19 825.26 403.54 834.07 393.51 842.85 383.61 851.6 374.31 860.32 366.06 869.02 359.26 877.69 354.19 886.33 351.07 894.95 349.99 903.55 350.94 912.12 353.77 920.66 358.26 929.19 364.07 937.69 370.81 946.16 378.02 954.62 385.24 963.06 391.98 971.48 397.8 988.25 404.29 1004.96 405.35 1013.3 402.46 1021.61 397.7 1029.91 391.26 1038.2 383.46 1046.48 374.66 1054.74 365.29 1062.99 355.8 1071.24 346.65 1079.47 338.29 1087.7 331.11 1104.13 322.43 1120.54 319.29 1128.74 321 1136.94 324.38 1145.14 329.16 1153.34 335.01 1161.54 341.52 1169.74 348.26 1177.94 354.77 1186.15 360.63 1202.59 368.05 1219.05 370.65 1227.29 368.79 1235.55 365.12 1243.81 359.78 1252.09 353.01 1260.38 345.12 1268.69 336.49 1277.01 327.54 1285.35 318.7 1293.71 310.39 1302.09 302.99 1310.49 296.86 1318.9 292.26 1327.34 289.36 1335.81 288.25" fill="url(#uuunion-grad3)" filter="url(#uuunion-blur2)"></path></svg>