<svg xmlns="http://www.w3.org/2000/svg" version="1.1" xmlns:xlink="http://www.w3.org/1999/xlink" xmlns:svgjs="http://svgjs.dev/svgjs" viewBox="0 0 1422 800"><defs><filter id="uuunion-blur" x="-100%" y="-100%" width="400%" height="400%" color-interpolation-filters="sRGB">
        <feGaussianBlur in="SourceGraphic" stdDeviation="0 0" result="blur"></feGaussianBlur>
        <feDropShadow stdDeviation="0" in="blur" dx="0" dy="0" flood-color="hsl(272, 73%, 52%)" flood-opacity="1" x="0%" y="0%" width="100%" height="100%"></feDropShadow>
      </filter><filter id="uuunion-blur2" x="-100%" y="-100%" width="400%" height="400%" color-interpolation-filters="sRGB">
        <feGaussianBlur in="SourceGraphic" stdDeviation="0 0" result="blur"></feGaussianBlur>
        <feDropShadow stdDeviation="0" in="blur" dx="-0" dy="-0" flood-color="hsl(272, 73%, 52%)" flood-opacity="1" x="0%" y="0%" width="100%" height="100%"></feDropShadow>
      </filter><linearGradient gradientTransform="rotate(139, 0.5, 0.5)" x1="50%" y1="0%" x2="50%" y2="100%" id="uuunion-grad"><stop stop-color="hsl(302, 100%, 50%)" offset="10%"></stop><stop stop-color="hsl(272, 73%, 52%)" offset="90%"></stop></linearGradient><linearGradient gradientTransform="rotate(138, 0.5, 0.5)" x1="50%" y1="0%" x2="50%" y2="100%" id="uuunion-grad2"><stop stop-color="hsl(302, 100%, 50%)" offset="25%"></stop><stop stop-color="hsl(272, 73%, 52%)" offset="100%"></stop></linearGradient><linearGradient gradientTransform="rotate(309, 0.5, 0.5)" x1="50%" y1="0%" x2="50%" y2="100%" id="uuunion-grad3"><stop stop-color="hsl(302, 100%, 50%)" offset="0%"></stop><stop stop-color="hsl(272, 73%, 52%)" offset="75%"></stop></linearGradient></defs><path d="M-123.43 -83.7Q-110.67 -83 -97.9 -82.12 -85.14 -81.13 -72.37 -80.07 -59.61 -79 -46.85 -78 -34.08 -77.1 -21.32 -76.37 -8.56 -75.84 4.2 -75.55 16.96 -75.51 29.73 -75.72 42.49 -76.17 55.25 -76.84 68.02 -77.68 80.78 -78.66 93.54 -79.71 106.31 -80.78 119.07 -81.8 131.84 -82.72 144.6 -83.49 157.36 -84.06 170.13 -84.4 182.89 -84.49 195.65 -84.33 208.42 -83.93 221.18 -83.3 233.95 -82.48 246.71 -81.53 259.47 -80.49 272.24 -79.42 285 -78.38 297.76 -77.44 310.53 -76.64 323.29 -76.03 336.06 -75.64 348.82 -75.5 361.58 -75.61 374.35 -75.97 387.11 -76.55 399.87 -77.33 412.64 -78.26 425.4 -79.29 438.17 -80.36 450.93 -81.41 463.69 -82.38 476.46 -83.21 489.22 -83.86 501.98 -84.3 514.75 -84.49 527.51 -84.42 540.28 -84.11 553.04 -83.57 565.8 -82.82 578.57 -81.92 591.33 -80.9 604.1 -79.84 616.86 -78.78 629.62 -77.8 642.39 -76.93 655.15 -76.24 667.91 -75.76 680.68 -75.52 693.44 -75.53 706.21 -75.8 718.97 -76.3 731.73 -77.01 744.5 -77.88 757.26 -78.88 770.02 -79.94 782.79 -81 795.55 -82.01 808.32 -82.9 821.08 -83.63 833.84 -84.15 846.61 -84.44 859.37 -84.48 872.14 -84.26 884.9 -83.81 897.66 -83.14 910.43 -82.29 923.19 -81.31 935.95 -80.26 948.72 -79.19 961.48 -78.17 974.25 -77.25 987.01 -76.49 999.77 -75.92 1012.54 -75.59 1025.3 -75.5 1038.07 -75.66 1050.83 -76.07 1063.59 -76.7 1076.36 -77.52 1089.12 -78.48 1101.88 -79.52 1114.65 -80.59 1127.41 -81.62 1140.18 -82.57 1152.94 -83.36 1165.7 -83.97 1178.47 -84.36 1191.23 -84.49 1204 -84.38 1216.76 -84.02 1229.52 -83.43 1242.29 -82.64 1255.05 -81.71 1267.81 -80.68 1280.58 -79.61 1293.34 -78.57 1306.11 -77.6 1318.87 -76.77 1331.63 -76.12 1344.4 -75.69 1357.16 -75.5 1369.93 -75.57 1382.69 -75.88 1395.45 -76.43 1408.22 -77.18 1420.98 -78.09 1433.74 -79.1 1446.51 -80.17 1459.27 -81.22 1472.04 -82.21 1484.8 -83.07 1487.09 -76.98 1463.03 -56.18 1472.66 -42.15 1503.31 -28.12 1547.93 -14.09 1596.29 -0.06 1637.29 13.96 1661.49 27.98 1663.36 42.01 1642.46 56.04 1603.59 70.07 1555.68 84.1 1509.72 98.13 1476.26 112.16 1463 126.18 1472.97 140.21 1503.89 154.24 1548.65 168.27 1596.98 182.3 1637.78 196.33 1661.69 210.36 1663.22 224.38 1642 238.41 1602.93 252.44 1554.96 266.47 1509.11 280.5 1475.91 294.53 1462.98 308.56 1473.29 322.58 1504.47 336.61 1549.36 350.64 1597.66 364.67 1638.28 378.7 1661.88 392.73 1663.06 406.75 1641.54 420.78 1602.26 434.81 1554.24 448.84 1508.5 462.87 1475.56 476.9 1462.96 490.93 1473.61 504.95 1505.05 518.98 1550.08 533.01 1598.34 547.04 1638.77 561.07 1662.07 575.1 1662.9 589.13 1641.07 603.15 1601.59 617.18 1553.52 631.21 1507.9 645.24 1475.21 659.27 1462.95 673.3 1473.93 687.33 1505.64 701.35 1550.79 715.38 1599.02 729.41 1639.26 743.44 1662.25 757.47 1662.74 771.5 1640.6 785.53 1600.92 799.55 1552.8 813.58 1539.59 821.03 1526.38 831.81 1513.17 845.31 1499.96 860.76 1486.75 877.29 1473.53 893.98 1460.32 909.88 1447.11 924.1 1433.9 935.82 1420.69 944.4 1407.48 949.35 1394.27 950.38 1381.06 947.44 1367.84 940.7 1354.63 930.54 1341.42 917.52 1328.21 902.39 1315 885.99 1301.79 869.26 1288.58 853.13 1275.37 838.52 1262.15 826.24 1248.94 817 1235.73 811.31 1222.52 809.5 1209.31 811.66 1196.1 817.68 1182.89 827.21 1169.68 839.72 1156.46 854.5 1143.25 870.72 1130.04 887.46 1116.83 903.78 1103.62 918.76 1090.41 931.55 1077.2 941.44 1063.99 947.86 1050.77 950.45 1037.56 949.07 1024.35 943.79 1011.14 934.91 997.93 922.94 984.72 908.54 971.51 892.54 958.3 875.82 945.09 859.35 931.87 844.03 918.66 830.75 905.45 820.24 892.24 813.1 879.03 809.74 865.82 810.34 852.61 814.87 839.4 823.07 826.18 834.48 812.97 848.46 799.76 864.22 786.55 880.87 773.34 897.47 760.13 913.08 746.92 926.83 733.71 937.93 720.5 945.77 707.28 949.9 694.07 950.08 680.86 946.32 667.65 938.81 654.44 927.98 641.23 914.45 628.02 898.97 614.81 882.43 601.59 865.74 588.38 849.86 575.17 835.68 561.96 824 548.75 815.48 535.54 810.6 522.33 809.63 509.12 812.63 495.91 819.43 482.69 829.64 469.48 842.7 456.27 857.86 443.06 874.27 429.85 891 416.64 907.11 403.43 921.69 390.22 933.92 377.01 943.11 363.79 948.74 350.58 950.49 337.37 948.26 324.16 942.19 310.95 932.6 297.74 920.05 284.53 905.24 271.32 889.01 258.11 872.27 244.89 855.96 231.68 841.01 218.47 828.26 205.26 818.42 192.05 812.06 178.84 809.53 165.63 810.98 152.42 816.31 139.21 825.24 125.99 837.26 112.78 851.69 99.57 867.71 86.36 884.43 73.15 900.9 59.94 916.19 46.73 929.43 33.52 939.89 20.31 946.97 7.09 950.27 -6.11 949.61 -19.32 945.02 -32.53 936.77 -45.74 925.31 -58.95 911.29 -72.16 895.52 -85.37 878.86 -98.58 862.27 -111.8 846.68 -125.01 832.97 -138.22 821.91 -154.97 807.76 -168.79 793.61 -176.5 779.46 -176.33 765.31 -168.32 751.16 -154.31 737.01 -137.52 722.86 -121.8 708.71 -110.76 694.56 -106.93 680.4 -111.2 666.25 -122.59 652.1 -138.47 637.95 -155.2 623.8 -168.95 609.65 -176.55 595.5 -176.26 581.35 -168.15 567.2 -154.07 553.05 -137.27 538.9 -121.59 524.75 -110.64 510.6 -106.94 496.45 -111.32 482.3 -122.79 468.15 -138.72 454 -155.44 439.85 -169.11 425.7 -176.61 411.55 -176.2 397.4 -167.98 383.25 -153.84 369.1 -137.02 354.95 -121.39 340.8 -110.53 326.65 -106.94 312.5 -111.45 298.35 -123.01 284.2 -138.97 270.05 -155.67 255.9 -169.28 241.74 -176.66 227.59 -176.13 213.44 -167.81 199.29 -153.6 185.14 -136.77 170.99 -121.19 156.84 -110.42 142.69 -106.95 128.54 -111.57 114.39 -123.22 100.24 -139.22 86.09 -155.9 71.94 -169.44 57.79 -176.71 43.64 -176.06 29.49 -167.63 15.34 -153.36 1.19 -136.52 -12.95 -120.99 -27.1 -110.31 -41.25 -106.96 -55.4 -111.7 -69.55 -123.43 -83.7" fill="url(#uuunion-grad)"></path><path d="M-123.44 -83.7Q-111.7 -69.55 -106.97 -55.4 -110.32 -41.25 -120.99 -27.1 -136.53 -12.95 -153.37 1.19 -167.64 15.34 -176.07 29.49 -176.72 43.64 -169.45 57.79 -155.91 71.94 -139.23 86.09 -123.23 100.24 -111.58 114.39 -106.96 128.54 -110.43 142.69 -121.2 156.84 -136.78 170.99 -153.61 185.14 -167.82 199.29 -176.14 213.44 -176.67 227.59 -169.29 241.74 -155.68 255.89 -138.98 270.04 -123.01 284.19 -111.45 298.34 -106.95 312.49 -110.54 326.64 -121.4 340.79 -137.03 354.94 -153.85 369.09 -144.73 372.84 -135.6 377.27 -126.48 382.27 -117.36 387.71 -108.24 393.47 -99.11 399.39 -89.99 405.32 -80.87 411.12 -71.75 416.64 -62.62 421.74 -53.5 426.3 -44.38 430.19 -35.26 433.32 -26.13 435.62 -8.89 437.36 -5.85 437.47 7.74 433.14 21.21 427.41 34.54 420.4 47.7 412.28 60.66 403.25 73.42 393.55 85.95 383.45 98.26 373.22 110.32 363.15 122.16 353.5 133.75 344.53 145.12 336.44 156.28 329.44 167.23 323.64 178 319.15 188.6 316 199.05 314.17 209.38 313.61 219.62 314.18 229.8 315.73 239.93 318.07 250.04 320.98 260.17 324.21 270.35 327.5 280.58 330.62 290.91 333.31 301.35 335.35 311.92 336.56 322.64 336.77 333.52 335.87 344.58 333.79 355.82 330.49 367.24 326.01 378.84 320.42 390.63 313.82 402.6 306.37 414.72 298.24 427 289.65 439.41 280.81 451.93 271.95 464.54 263.29 477.22 255.05 489.93 247.41 502.64 240.56 515.33 234.61 527.97 229.68 540.52 225.8 552.95 223 565.23 221.25 577.33 220.47 589.22 220.56 600.88 221.38 612.28 222.76 623.4 224.53 634.22 226.47 644.74 228.39 654.94 230.1 664.81 231.4 674.36 232.14 683.59 232.17 692.5 231.37 701.12 229.68 709.46 227.05 717.53 223.49 725.38 219.01 733.02 213.7 740.49 207.65 747.84 200.99 755.1 193.87 762.32 186.46 769.54 178.93 776.81 171.45 784.18 164.19 791.69 157.31 799.41 150.95 807.37 145.22 815.63 140.22 824.22 136 833.19 132.6 842.59 130 852.43 128.16 862.76 127.03 873.6 126.5 884.97 126.47 896.89 126.8 909.36 127.35 922.38 127.97 935.96 128.5 950.08 128.82 964.72 128.79 979.87 128.3 995.48 127.25 1011.53 125.57 1027.97 123.23 1044.75 120.21 1061.82 116.52 1079.12 112.2 1096.59 107.32 1114.16 101.95 1131.76 96.2 1149.33 90.18 1166.78 84.01 1184.06 77.81 1201.08 71.72 1217.77 65.83 1234.07 60.26 1249.9 55.09 1265.21 50.38 1279.94 46.2 1294.03 42.56 1307.43 39.48 1320.11 36.92 1332.02 34.85 1343.15 33.22 1353.48 31.95 1362.99 30.96 1379.17 29.42 1393 27.85 1414.4 17.85 1422 9.66 1373.91 -8.99 1340.74 -27.66 1332.79 -46.32 1352.52 -64.98 1393.81 -83.64 1443.84 -102.31 1487.1 -120.97 1510.15 -139.63 1496.87 -139.62 1483.59 -139.63 1470.31 -139.65 1457.04 -139.69 1443.76 -139.74 1430.48 -139.81 1417.2 -139.89 1403.92 -139.97 1390.64 -140.05 1377.36 -140.13 1364.09 -140.2 1350.81 -140.27 1337.53 -140.32 1324.25 -140.35 1310.97 -140.37 1297.69 -140.37 1284.41 -140.35 1271.13 -140.31 1257.86 -140.26 1244.58 -140.2 1231.3 -140.13 1218.02 -140.05 1204.74 -139.96 1191.46 -139.88 1178.18 -139.81 1164.91 -139.74 1151.63 -139.69 1138.35 -139.65 1125.07 -139.63 1111.79 -139.62 1098.51 -139.63 1085.23 -139.66 1071.96 -139.71 1058.68 -139.77 1045.4 -139.84 1032.12 -139.92 1018.84 -140 1005.56 -140.08 992.28 -140.16 979.01 -140.23 965.73 -140.29 952.45 -140.33 939.17 -140.36 925.89 -140.37 912.61 -140.36 899.33 -140.34 886.06 -140.29 872.78 -140.24 859.5 -140.17 846.22 -140.09 832.94 -140.01 819.66 -139.93 806.38 -139.85 793.11 -139.78 779.83 -139.72 766.55 -139.67 753.27 -139.64 739.99 -139.62 726.71 -139.62 713.43 -139.64 700.16 -139.68 686.88 -139.74 673.6 -139.8 660.32 -139.87 647.04 -139.96 633.76 -140.04 620.48 -140.12 607.21 -140.19 593.93 -140.26 580.65 -140.31 567.37 -140.35 554.09 -140.37 540.81 -140.37 527.53 -140.35 514.26 -140.32 500.98 -140.27 487.7 -140.21 474.42 -140.14 461.14 -140.06 447.86 -139.98 434.58 -139.89 421.31 -139.82 408.03 -139.75 394.75 -139.69 381.47 -139.65 368.19 -139.63 354.91 -139.62 341.63 -139.63 328.35 -139.66 315.08 -139.7 301.8 -139.76 288.52 -139.83 275.24 -139.91 261.96 -139.99 248.68 -140.07 235.4 -140.15 222.13 -140.22 208.85 -140.28 195.57 -140.33 182.29 -140.36 169.01 -140.37 155.73 -140.36 142.45 -140.34 129.18 -140.3 115.9 -140.25 102.62 -140.18 89.34 -140.1 76.06 -140.02 62.78 -139.94 49.5 -139.86 36.23 -139.79 22.95 -139.73 9.67 -139.67 -3.6 -139.64 -16.88 -139.62 -30.16 -139.62 -43.44 -139.64 -56.71 -139.68 -69.99 -139.73 -83.27 -139.79 -96.55 -139.86 -109.83 -139.94 -123.11 -140.02 -136.39 -140.11 -149.66 -140.18 -162.94 -140.25 -177.61 -133.28 -162.23 -112.14 -142.41 -97.95 -123.44 -83.7" fill="url(#uuunion-grad2)" filter="url(#uuunion-blur)"></path><path d="M1351.71 350.92Q1360.04 349.23 1368.38 346.81 1376.71 343.71 1385.04 340.01 1393.37 335.82 1401.7 331.22 1410.03 326.34 1418.36 321.31 1426.7 316.24 1435.03 311.26 1443.36 306.51 1451.69 302.09 1460.02 298.12 1468.35 294.71 1470.11 299.07 1473.29 322.58 1511.25 338.95 1565.64 355.32 1619.58 371.68 1656.34 388.05 1664.5 404.42 1641.54 420.78 1594.58 437.15 1538.19 453.52 1489.87 469.88 1464.61 486.25 1470.26 502.62 1505.05 518.98 1558.2 535.35 1613.21 551.72 1653.01 568.08 1665.25 584.45 1646.13 600.82 1601.59 617.18 1545.44 633.55 1495.12 649.92 1466.23 666.28 1467.74 682.65 1499.18 699.02 1550.79 715.38 1606.57 731.75 1649.2 748.12 1665.45 764.48 1650.28 780.85 1608.4 797.22 1552.8 813.58 1540.68 820.28 1528.57 829.82 1516.45 841.74 1504.33 855.48 1492.21 870.38 1480.09 885.74 1467.97 900.82 1455.86 914.92 1443.74 927.36 1431.62 937.54 1419.5 945 1407.38 949.37 1395.27 950.44 1383.15 948.17 1371.03 942.66 1358.91 934.17 1346.79 923.11 1334.68 910.01 1322.56 895.47 1310.44 880.21 1298.32 864.93 1286.2 850.37 1274.09 837.21 1261.97 826.09 1249.85 817.53 1237.73 811.93 1225.61 809.57 1213.5 810.55 1201.38 814.83 1189.26 822.2 1177.14 832.32 1165.02 844.7 1152.91 858.76 1140.79 873.83 1128.67 889.19 1116.55 904.11 1104.43 917.89 1092.32 929.87 1080.2 939.48 1068.08 946.26 1055.96 949.9 1043.84 950.22 1031.73 947.2 1019.61 940.99 1007.49 931.89 995.37 920.32 983.25 906.83 971.13 892.07 959.02 876.74 946.9 861.56 934.78 847.26 922.66 834.51 910.54 823.92 898.43 815.99 886.31 811.11 874.19 809.5 862.07 811.23 849.95 816.23 837.84 824.26 825.72 834.93 813.6 847.75 801.48 862.1 789.36 877.29 777.25 892.62 765.13 907.34 753.01 920.77 740.89 932.26 728.77 941.27 716.66 947.37 704.54 950.27 692.42 949.83 680.3 946.07 668.18 939.18 656.07 929.47 643.95 917.42 631.83 903.59 619.71 888.64 607.59 873.28 595.48 858.23 583.36 844.22 571.24 831.91 559.12 821.88 547 814.62 534.89 810.45 522.77 809.59 510.65 812.08 498.53 817.79 486.41 826.45 474.29 837.66 462.18 850.87 450.06 865.47 437.94 880.76 425.82 896.02 413.7 910.51 401.59 923.55 389.47 934.53 377.35 942.91 365.23 948.31 353.11 950.46 341 949.27 328.88 944.78 316.76 937.22 304.64 926.94 292.52 914.43 280.41 900.29 268.29 885.18 256.17 869.83 244.05 854.96 231.93 841.28 219.82 829.43 207.7 819.99 195.58 813.4 183.46 809.97 171.34 809.86 159.23 813.09 147.11 819.5 134.99 828.77 122.87 840.48 110.75 854.07 98.64 868.89 86.52 884.23 74.4 899.38 62.28 913.6 50.16 926.23 38.05 936.66 25.93 944.4 13.81 949.08 1.69 950.48 -5.99 939.8 -13.16 929.11 -19.07 918.42 -23.13 907.73 -24.9 897.05 -24.2 886.36 -18.26 870.33 -14.89 865 2.09 856.71 19.15 845.35 36.06 831.2 52.63 814.68 68.69 796.35 84.13 776.82 98.85 756.76 112.81 736.87 126.02 717.81 138.51 700.21 150.37 684.62 161.69 671.45 172.61 661.03 183.27 653.52 193.81 648.94 204.38 647.16 215.1 647.92 226.08 650.84 237.42 655.44 249.16 661.14 261.32 667.35 273.9 673.44 286.85 678.8 300.1 682.86 313.55 685.14 327.09 685.25 340.61 682.9 353.98 677.93 367.08 670.34 379.82 660.22 392.12 647.81 403.93 633.45 415.22 617.57 426.03 600.68 436.39 583.32 446.4 566.04 456.17 549.4 465.85 533.89 475.59 519.96 485.57 507.95 495.96 498.12 506.91 490.6 518.57 485.42 531.05 482.48 544.43 481.58 558.76 482.41 574.01 484.59 590.14 487.68 607.03 491.19 624.53 494.65 642.45 497.56 660.57 499.49 678.62 500.04 696.36 498.92 713.52 495.89 729.84 490.84 745.1 483.76 759.1 474.71 771.72 463.89 782.86 451.56 792.51 438.06 800.7 423.75 807.56 409.07 813.26 394.44 821.66 386.9 829.99 379.74 838.25 373.14 846.42 367.26 862.52 358.68 878.41 353.2 893.98 353.16 909.38 356.19 924.52 363.39 939.55 372.24 946.99 377.21 954.41 382.19 969.17 391.19 983.88 398.65 998.58 402.16 1013.28 402.71 1028.08 398.07 1042.95 390.45 1050.45 385.11 1057.99 379.07 1065.59 372.48 1073.23 365.51 1080.94 358.33 1088.72 351.11 1096.57 344.04 1104.49 337.29 1112.5 331.02 1120.6 325.39 1128.78 320.51 1137.07 316.5 1154.01 311.86 1171.28 310.23 1180.12 311.14 1189.08 312.93 1198.18 315.52 1207.4 318.78 1216.76 322.58 1226.26 326.77 1235.89 331.17 1245.67 335.63 1255.6 339.95 1265.67 343.99 1275.89 347.58 1286.26 350.58 1296.79 352.87 1307.46 354.34 1318.3 354.91 1329.28 354.55 1340.42 353.21 1351.71 350.92" fill="url(#uuunion-grad3)" filter="url(#uuunion-blur2)"></path></svg>