<?xml version="1.0" standalone="no"?>
<svg xmlns:xlink="http://www.w3.org/1999/xlink" xmlns="http://www.w3.org/2000/svg"
    viewBox="0 0 1920 872.7213774834438" preserveAspectRatio="xMaxYMax slice">
    <g transform="scale(1.271523178807947)">
        <rect x="0" y="0" width="1510" height="686.3636363636364" fill="#1e293b" />
        <rect x="54.909090909090914" y="192.1818181818182" width="27.454545454545453"
            height="27.454545454545453" fill="#1e293b" />
        <rect x="604" y="192.1818181818182" width="27.454545454545453" height="27.454545454545453"
            fill="#1e293b" />
        <circle cx="610.865" cy="199.04500000000002" r="6.865" fill="#432b42" />
        <rect x="329.4545454545455" y="329.4545454545455" width="27.454545454545453"
            height="27.454545454545453" fill="#1e293b" />
        <rect x="741.2727272727273" y="329.4545454545455" width="27.454545454545453"
            height="27.454545454545453" fill="#1e293b" />
        <circle cx="748.135" cy="336.315" r="6.865" fill="#792e4c" />
        <path d="M 755 343.18 A 13.73 13.73 0 0 0 768.73 329.45 L 755 329.45" fill="#5b2c46" />
        <path
            d="M 741.27 343.18 A 13.73 13.73 0 0 1  755 356.91 L 741.27 343.18 A 13.73 13.73 0 0 0 755 356.91"
            fill="#f03462" />
        <rect x="1427.6363636363637" y="329.4545454545455" width="27.454545454545453"
            height="27.454545454545453" fill="#1e293b" />
        <path
            d="M 1441.36 343.18 A 13.73 13.73 0 0 1  1455.09 329.45 L 1441.36 343.18 A 13.73 13.73 0 0 0 1455.09 329.45"
            fill="#b23157" />
        <path d="M 1427.64 356.91 A 13.73 13.73 0 0 0 1441.3700000000001 343.18 L 1427.64 343.18"
            fill="#423a3b" />
        <path d="M 1441.36 356.91 A 13.73 13.73 0 0 1  1455.09 343.18 L 1455.09 356.91"
            fill="#5f2c47" />
        <rect x="54.909090909090914" y="466.7272727272728" width="27.454545454545453"
            height="27.454545454545453" fill="#1e293b" />
        <path d="M 54.91 466.73 A 13.73 13.73 0 0 0 68.64 480.46000000000004 L 68.64 466.73"
            fill="#6f503b" />
        <circle cx="61.775" cy="487.315" r="6.865" fill="#443b3b" />
        <path
            d="M 68.64 480.45 A 13.73 13.73 0 0 1  82.37 494.18 L 68.64 480.45 A 13.73 13.73 0 0 0 82.37 494.18"
            fill="#cd7c3c" />
        <rect x="466.7272727272728" y="466.7272727272728" width="27.454545454545453"
            height="27.454545454545453" fill="#1e293b" />
        <path
            d="M 480.45 480.46000000000004 A 13.73 13.73 0 0 1  494.18 466.73 L 494.18 480.46000000000004"
            fill="#e2863c" />
        <path d="M 466.73 494.18 A 13.73 13.73 0 0 0 480.46000000000004 480.45 L 466.73 480.45"
            fill="#b33157" />
        <path d="M 480.45 480.45 A 13.73 13.73 0 0 1 494.18 494.18 L 480.45 494.18" fill="#98633c" />
        <rect x="604" y="466.7272727272728" width="27.454545454545453" height="27.454545454545453"
            fill="#1e293b" />
        <circle cx="610.865" cy="473.595" r="6.865" fill="#483d3b" />
        <circle cx="624.595" cy="473.595" r="6.865" fill="#b3703c" />
        <circle cx="610.865" cy="487.315" r="6.865" fill="#de335f" />
        <path d="M 617.73 494.18 A 13.73 13.73 0 0 1  631.46 480.45 L 631.46 494.18" fill="#cd7c3c" />
        <rect x="741.2727272727273" y="466.7272727272728" width="27.454545454545453"
            height="27.454545454545453" fill="#1e293b" />
        <circle cx="761.865" cy="473.595" r="6.865" fill="#62493b" />
        <circle cx="761.865" cy="487.315" r="6.865" fill="#664b3b" />
        <rect x="878.5454545454546" y="466.7272727272728" width="27.454545454545453"
            height="27.454545454545453" fill="#1e293b" />
        <circle cx="899.135" cy="473.595" r="6.865" fill="#3f2b41" />
        <circle cx="899.135" cy="487.315" r="6.865" fill="#78543b" />
        <rect x="1015.8181818181819" y="466.7272727272728" width="27.454545454545453"
            height="27.454545454545453" fill="#1e293b" />
        <circle cx="1022.6850000000001" cy="473.595" r="6.865" fill="#e93461" />
        <path
            d="M 1015.82 494.18 A 13.73 13.73 0 0 1  1029.55 480.45 L 1015.82 494.18 A 13.73 13.73 0 0 0 1029.55 480.45"
            fill="#832e4e" />
        <rect x="1290.3636363636365" y="466.7272727272728" width="27.454545454545453"
            height="27.454545454545453" fill="#1e293b" />
        <path d="M 1290.36 494.18 A 13.73 13.73 0 0 1  1304.09 480.45 L 1304.09 494.18"
            fill="#c9325b" />
        <circle cx="1310.955" cy="487.315" r="6.865" fill="#654b3b" />
        <rect x="54.909090909090914" y="604" width="27.454545454545453" height="27.454545454545453"
            fill="#1e293b" />
        <path d="M 54.91 604 A 13.73 13.73 0 0 1 68.64 617.73 L 54.91 617.73" fill="#6f503b" />
        <path d="M 68.64 617.73 A 13.73 13.73 0 0 0 82.37 604 L 68.64 604" fill="#f08d3c" />
        <circle cx="61.775" cy="624.595" r="6.865" fill="#32333b" />
        <circle cx="75.505" cy="624.595" r="6.865" fill="#3f2b41" />
        <rect x="192.1818181818182" y="604" width="27.454545454545453" height="27.454545454545453"
            fill="#1e293b" />
        <path d="M 192.18 604 A 13.73 13.73 0 0 0 205.91 617.73 L 205.91 604" fill="#832e4e" />
        <circle cx="212.775" cy="610.865" r="6.865" fill="#602d47" />
        <circle cx="199.04500000000002" cy="624.595" r="6.865" fill="#e33460" />
        <circle cx="212.775" cy="624.595" r="6.865" fill="#c5783c" />
        <rect x="329.4545454545455" y="604" width="27.454545454545453" height="27.454545454545453"
            fill="#1e293b" />
        <path d="M 329.45 617.73 A 13.73 13.73 0 0 1  343.18 604 L 343.18 617.73" fill="#a5693c" />
        <circle cx="350.045" cy="610.865" r="6.865" fill="#ec3462" />
        <path d="M 329.45 631.46 A 13.73 13.73 0 0 0 343.18 617.73 L 329.45 617.73" fill="#8c2f50" />
        <circle cx="350.045" cy="624.595" r="6.865" fill="#a96b3c" />
        <rect x="466.7272727272728" y="604" width="27.454545454545453" height="27.454545454545453"
            fill="#1e293b" />
        <circle cx="473.595" cy="610.865" r="6.865" fill="#4a3e3b" />
        <path d="M 480.45 604 A 13.73 13.73 0 0 1 494.18 617.73 L 480.45 617.73" fill="#f7903c" />
        <path
            d="M 466.73 631.46 A 13.73 13.73 0 0 1  480.46000000000004 617.73 L 466.73 631.46 A 13.73 13.73 0 0 0 480.46000000000004 617.73"
            fill="#6d4e3b" />
        <path
            d="M 480.45 631.46 A 13.73 13.73 0 0 1  494.18 617.73 L 480.45 631.46 A 13.73 13.73 0 0 0 494.18 617.73"
            fill="#55433b" />
        <rect x="604" y="604" width="27.454545454545453" height="27.454545454545453" fill="#1e293b" />
        <path d="M 604 604 A 13.73 13.73 0 0 0 617.73 617.73 L 617.73 604" fill="#c3773c" />
        <circle cx="624.595" cy="610.865" r="6.865" fill="#5d473b" />
        <circle cx="610.865" cy="624.595" r="6.865" fill="#a2683c" />
        <path
            d="M 617.73 631.46 A 13.73 13.73 0 0 1  631.46 617.73 L 617.73 631.46 A 13.73 13.73 0 0 0 631.46 617.73"
            fill="#ef3462" />
        <rect x="741.2727272727273" y="604" width="27.454545454545453" height="27.454545454545453"
            fill="#1e293b" />
        <path
            d="M 741.27 617.73 A 13.73 13.73 0 0 1  755 604 L 741.27 617.73 A 13.73 13.73 0 0 0 755 604"
            fill="#8e5e3c" />
        <circle cx="761.865" cy="610.865" r="6.865" fill="#2d2a3e" />
        <path d="M 741.27 631.46 A 13.73 13.73 0 0 0 755 617.73 L 741.27 617.73" fill="#5c473b" />
        <circle cx="761.865" cy="624.595" r="6.865" fill="#812e4e" />
        <rect x="878.5454545454546" y="604" width="27.454545454545453" height="27.454545454545453"
            fill="#1e293b" />
        <circle cx="885.415" cy="610.865" r="6.865" fill="#59453b" />
        <circle cx="899.135" cy="610.865" r="6.865" fill="#f9913c" />
        <circle cx="885.415" cy="624.595" r="6.865" fill="#312a3f" />
        <path d="M 892.27 631.46 A 13.73 13.73 0 0 1  906 617.73 L 906 631.46" fill="#d5803c" />
        <rect x="1015.8181818181819" y="604" width="27.454545454545453" height="27.454545454545453"
            fill="#1e293b" />
        <path d="M 1015.82 617.73 A 13.73 13.73 0 0 1  1029.55 604 L 1029.55 617.73" fill="#3c2b41" />
        <path
            d="M 1029.55 617.73 A 13.73 13.73 0 0 1  1043.28 604 L 1029.55 617.73 A 13.73 13.73 0 0 0 1043.28 604"
            fill="#372a40" />
        <circle cx="1022.6850000000001" cy="624.595" r="6.865" fill="#342a3f" />
        <path
            d="M 1029.55 631.46 A 13.73 13.73 0 0 1  1043.28 617.73 L 1029.55 631.46 A 13.73 13.73 0 0 0 1043.28 617.73"
            fill="#fb3564" />
        <rect x="1290.3636363636365" y="604" width="27.454545454545453" height="27.454545454545453"
            fill="#1e293b" />
        <path
            d="M 1290.36 604 A 13.73 13.73 0 0 1  1304.09 617.73 L 1290.36 604 A 13.73 13.73 0 0 0 1304.09 617.73"
            fill="#a53054" />
        <circle cx="1310.955" cy="610.865" r="6.865" fill="#de843c" />
        <path d="M 1290.36 617.73 A 13.73 13.73 0 0 1 1304.09 631.46 L 1290.36 631.46"
            fill="#b3703c" />
        <path
            d="M 1304.09 617.73 A 13.73 13.73 0 0 1  1317.82 631.46 L 1304.09 617.73 A 13.73 13.73 0 0 0 1317.82 631.46"
            fill="#2b2f3b" />
        <rect x="1427.6363636363637" y="604" width="27.454545454545453" height="27.454545454545453"
            fill="#1e293b" />
        <circle cx="1434.505" cy="610.865" r="6.865" fill="#a23054" />
        <circle cx="1434.505" cy="624.595" r="6.865" fill="#463c3b" />
        <path
            d="M 1441.36 631.46 A 13.73 13.73 0 0 1  1455.09 617.73 L 1441.36 631.46 A 13.73 13.73 0 0 0 1455.09 617.73"
            fill="#36343b" />
    </g>
</svg>