<?xml version="1.0" standalone="no"?><svg xmlns:xlink="http://www.w3.org/1999/xlink" xmlns="http://www.w3.org/2000/svg" viewBox="0 0 1000 818.1850090593413" preserveAspectRatio="xMaxYMax slice"><g transform="scale(1.2103328536380789)"><rect x="0" y="0" width="826.2222222222223" height="676" fill="#ffffff"/><rect x="0" y="0" width="75.11" height="75.11" fill="#ffffff"/><path d="M 0 75.11 A 75.11 75.11 0 0 0 75.11 0 L 0 0" fill="#ffffff"/><rect x="75.11" y="0" width="75.11" height="75.11" fill="#dbdbdb"/><path d="M 75.11 0 A 75.11 75.11 0 0 1  150.22 75.11 L 75.11 0 A 75.11 75.11 0 0 0 150.22 75.11" fill="#dbdbdb"/><rect x="150.22" y="0" width="75.11" height="75.11" fill="#dbdbdb"/><path d="M 150.22 0 A 75.11 75.11 0 0 1  225.32999999999998 75.11 L 150.22 0 A 75.11 75.11 0 0 0 225.32999999999998 75.11" fill="#dbdbdb"/><rect x="225.33" y="0" width="75.11" height="75.11" fill="#dbdbdb"/><path d="M 225.33 75.11 A 75.11 75.11 0 0 1  300.44 0 L 300.44 75.11" fill="#ffffff"/><rect x="300.44" y="0" width="75.11" height="75.11" fill="#dbdbdb"/><path d="M 300.44 0 A 75.11 75.11 0 0 0 375.55 75.11 L 375.55 0" fill="#ffffff"/><rect x="375.56" y="0" width="75.11" height="75.11" fill="#dbdbdb"/><path d="M 375.56 0 A 75.11 75.11 0 0 1  450.67 75.11 L 375.56 0 A 75.11 75.11 0 0 0 450.67 75.11" fill="#ffffff"/><rect x="450.67" y="0" width="75.11" height="75.11" fill="#dbdbdb"/><path d="M 450.67 75.11 A 75.11 75.11 0 0 1  525.78 0 L 450.67 75.11 A 75.11 75.11 0 0 0 525.78 0" fill="#ffffff"/><rect x="525.78" y="0" width="75.11" height="75.11" fill="#ffffff"/><path d="M 525.78 75.11 A 75.11 75.11 0 0 0 600.89 0 L 525.78 0" fill="#dbdbdb"/><rect x="600.89" y="0" width="75.11" height="75.11" fill="#dbdbdb"/><path d="M 600.89 75.11 A 75.11 75.11 0 0 0 676 0 L 600.89 0" fill="#dbdbdb"/><rect x="676" y="0" width="75.11" height="75.11" fill="#dbdbdb"/><path d="M 676 75.11 A 75.11 75.11 0 0 1  751.11 0 L 676 75.11 A 75.11 75.11 0 0 0 751.11 0" fill="#dbdbdb"/><rect x="751.11" y="0" width="75.11" height="75.11" fill="#ffffff"/><path d="M 751.11 0 A 75.11 75.11 0 0 1  826.22 75.11 L 751.11 0 A 75.11 75.11 0 0 0 826.22 75.11" fill="#dbdbdb"/><rect x="0" y="75.11" width="75.11" height="75.11" fill="#dbdbdb"/><path d="M 0 75.11 A 75.11 75.11 0 0 1 75.11 150.22 L 0 150.22" fill="#ffffff"/><rect x="75.11" y="75.11" width="75.11" height="75.11" fill="#dbdbdb"/><path d="M 75.11 75.11 A 75.11 75.11 0 0 1 150.22 150.22 L 75.11 150.22" fill="#dbdbdb"/><rect x="150.22" y="75.11" width="75.11" height="75.11" fill="#dbdbdb"/><path d="M 150.22 150.22 A 75.11 75.11 0 0 0 225.32999999999998 75.11 L 150.22 75.11" fill="#dbdbdb"/><rect x="225.33" y="75.11" width="75.11" height="75.11" fill="#ffffff"/><path d="M 225.33 75.11 A 75.11 75.11 0 0 1 300.44 150.22 L 225.33 150.22" fill="#dbdbdb"/><rect x="300.44" y="75.11" width="75.11" height="75.11" fill="#dbdbdb"/><path d="M 300.44 75.11 A 75.11 75.11 0 0 1  375.55 150.22 L 300.44 75.11 A 75.11 75.11 0 0 0 375.55 150.22" fill="#ffffff"/><rect x="375.56" y="75.11" width="75.11" height="75.11" fill="#dbdbdb"/><path d="M 375.56 150.22 A 75.11 75.11 0 0 1  450.67 75.11 L 450.67 150.22" fill="#dbdbdb"/><rect x="450.67" y="75.11" width="75.11" height="75.11" fill="#dbdbdb"/><path d="M 450.67 150.22 A 75.11 75.11 0 0 1  525.78 75.11 L 450.67 150.22 A 75.11 75.11 0 0 0 525.78 75.11" fill="#dbdbdb"/><rect x="525.78" y="75.11" width="75.11" height="75.11" fill="#dbdbdb"/><path d="M 525.78 150.22 A 75.11 75.11 0 0 1  600.89 75.11 L 525.78 150.22 A 75.11 75.11 0 0 0 600.89 75.11" fill="#dbdbdb"/><rect x="600.89" y="75.11" width="75.11" height="75.11" fill="#ffffff"/><path d="M 600.89 75.11 A 75.11 75.11 0 0 1  676 150.22 L 600.89 75.11 A 75.11 75.11 0 0 0 676 150.22" fill="#ffffff"/><rect x="676" y="75.11" width="75.11" height="75.11" fill="#ffffff"/><path d="M 676 150.22 A 75.11 75.11 0 0 1  751.11 75.11 L 676 150.22 A 75.11 75.11 0 0 0 751.11 75.11" fill="#ffffff"/><rect x="751.11" y="75.11" width="75.11" height="75.11" fill="#ffffff"/><path d="M 751.11 150.22 A 75.11 75.11 0 0 1  826.22 75.11 L 826.22 150.22" fill="#ffffff"/><rect x="0" y="150.22" width="75.11" height="75.11" fill="#dbdbdb"/><path d="M 0 225.32999999999998 A 75.11 75.11 0 0 1  75.11 150.22 L 75.11 225.32999999999998" fill="#dbdbdb"/><rect x="75.11" y="150.22" width="75.11" height="75.11" fill="#ffffff"/><path d="M 75.11 150.22 A 75.11 75.11 0 0 1  150.22 225.32999999999998 L 75.11 150.22 A 75.11 75.11 0 0 0 150.22 225.32999999999998" fill="#dbdbdb"/><rect x="150.22" y="150.22" width="75.11" height="75.11" fill="#dbdbdb"/><path d="M 150.22 225.32999999999998 A 75.11 75.11 0 0 1  225.32999999999998 150.22 L 150.22 225.32999999999998 A 75.11 75.11 0 0 0 225.32999999999998 150.22" fill="#dbdbdb"/><rect x="225.33" y="150.22" width="75.11" height="75.11" fill="#dbdbdb"/><path d="M 225.33 225.32999999999998 A 75.11 75.11 0 0 0 300.44 150.22 L 225.33 150.22" fill="#dbdbdb"/><rect x="300.44" y="150.22" width="75.11" height="75.11" fill="#ffffff"/><path d="M 300.44 225.32999999999998 A 75.11 75.11 0 0 1  375.55 150.22 L 300.44 225.32999999999998 A 75.11 75.11 0 0 0 375.55 150.22" fill="#dbdbdb"/><rect x="375.56" y="150.22" width="75.11" height="75.11" fill="#ffffff"/><path d="M 375.56 150.22 A 75.11 75.11 0 0 1 450.67 225.32999999999998 L 375.56 225.32999999999998" fill="#dbdbdb"/><rect x="450.67" y="150.22" width="75.11" height="75.11" fill="#ffffff"/><path d="M 450.67 150.22 A 75.11 75.11 0 0 0 525.78 225.32999999999998 L 525.78 150.22" fill="#ffffff"/><rect x="525.78" y="150.22" width="75.11" height="75.11" fill="#dbdbdb"/><path d="M 525.78 150.22 A 75.11 75.11 0 0 1  600.89 225.32999999999998 L 525.78 150.22 A 75.11 75.11 0 0 0 600.89 225.32999999999998" fill="#dbdbdb"/><rect x="600.89" y="150.22" width="75.11" height="75.11" fill="#dbdbdb"/><path d="M 600.89 225.32999999999998 A 75.11 75.11 0 0 0 676 150.22 L 600.89 150.22" fill="#dbdbdb"/><rect x="676" y="150.22" width="75.11" height="75.11" fill="#dbdbdb"/><path d="M 676 150.22 A 75.11 75.11 0 0 1  751.11 225.32999999999998 L 676 150.22 A 75.11 75.11 0 0 0 751.11 225.32999999999998" fill="#dbdbdb"/><rect x="751.11" y="150.22" width="75.11" height="75.11" fill="#ffffff"/><path d="M 751.11 150.22 A 75.11 75.11 0 0 1 826.22 225.32999999999998 L 751.11 225.32999999999998" fill="#dbdbdb"/><rect x="0" y="225.33" width="75.11" height="75.11" fill="#dbdbdb"/><path d="M 0 300.44 A 75.11 75.11 0 0 1  75.11 225.33 L 0 300.44 A 75.11 75.11 0 0 0 75.11 225.33" fill="#dbdbdb"/><rect x="75.11" y="225.33" width="75.11" height="75.11" fill="#dbdbdb"/><path d="M 75.11 225.33 A 75.11 75.11 0 0 1 150.22 300.44 L 75.11 300.44" fill="#dbdbdb"/><rect x="150.22" y="225.33" width="75.11" height="75.11" fill="#ffffff"/><path d="M 150.22 225.33 A 75.11 75.11 0 0 1  225.32999999999998 300.44 L 150.22 225.33 A 75.11 75.11 0 0 0 225.32999999999998 300.44" fill="#ffffff"/><rect x="225.33" y="225.33" width="75.11" height="75.11" fill="#dbdbdb"/><path d="M 225.33 225.33 A 75.11 75.11 0 0 1 300.44 300.44 L 225.33 300.44" fill="#dbdbdb"/><rect x="300.44" y="225.33" width="75.11" height="75.11" fill="#ffffff"/><path d="M 300.44 300.44 A 75.11 75.11 0 0 0 375.55 225.33 L 300.44 225.33" fill="#ffffff"/><rect x="375.56" y="225.33" width="75.11" height="75.11" fill="#ffffff"/><path d="M 375.56 225.33 A 75.11 75.11 0 0 0 450.67 300.44 L 450.67 225.33" fill="#ffffff"/><rect x="450.67" y="225.33" width="75.11" height="75.11" fill="#dbdbdb"/><path d="M 450.67 300.44 A 75.11 75.11 0 0 0 525.78 225.33 L 450.67 225.33" fill="#dbdbdb"/><rect x="525.78" y="225.33" width="75.11" height="75.11" fill="#ffffff"/><path d="M 525.78 225.33 A 75.11 75.11 0 0 1  600.89 300.44 L 525.78 225.33 A 75.11 75.11 0 0 0 600.89 300.44" fill="#ffffff"/><rect x="600.89" y="225.33" width="75.11" height="75.11" fill="#dbdbdb"/><path d="M 600.89 300.44 A 75.11 75.11 0 0 1  676 225.33 L 676 300.44" fill="#dbdbdb"/><rect x="676" y="225.33" width="75.11" height="75.11" fill="#dbdbdb"/><path d="M 676 225.33 A 75.11 75.11 0 0 1  751.11 300.44 L 676 225.33 A 75.11 75.11 0 0 0 751.11 300.44" fill="#ffffff"/><rect x="751.11" y="225.33" width="75.11" height="75.11" fill="#ffffff"/><path d="M 751.11 225.33 A 75.11 75.11 0 0 1  826.22 300.44 L 751.11 225.33 A 75.11 75.11 0 0 0 826.22 300.44" fill="#dbdbdb"/><rect x="0" y="300.44" width="75.11" height="75.11" fill="#dbdbdb"/><path d="M 0 300.44 A 75.11 75.11 0 0 0 75.11 375.55 L 75.11 300.44" fill="#dbdbdb"/><rect x="75.11" y="300.44" width="75.11" height="75.11" fill="#ffffff"/><path d="M 75.11 375.55 A 75.11 75.11 0 0 1  150.22 300.44 L 75.11 375.55 A 75.11 75.11 0 0 0 150.22 300.44" fill="#dbdbdb"/><rect x="150.22" y="300.44" width="75.11" height="75.11" fill="#ffffff"/><path d="M 150.22 375.55 A 75.11 75.11 0 0 1  225.32999999999998 300.44 L 150.22 375.55 A 75.11 75.11 0 0 0 225.32999999999998 300.44" fill="#dbdbdb"/><rect x="225.33" y="300.44" width="75.11" height="75.11" fill="#dbdbdb"/><path d="M 225.33 300.44 A 75.11 75.11 0 0 0 300.44 375.55 L 300.44 300.44" fill="#ffffff"/><rect x="300.44" y="300.44" width="75.11" height="75.11" fill="#dbdbdb"/><path d="M 300.44 375.55 A 75.11 75.11 0 0 1  375.55 300.44 L 300.44 375.55 A 75.11 75.11 0 0 0 375.55 300.44" fill="#dbdbdb"/><rect x="375.56" y="300.44" width="75.11" height="75.11" fill="#dbdbdb"/><path d="M 375.56 300.44 A 75.11 75.11 0 0 1  450.67 375.55 L 375.56 300.44 A 75.11 75.11 0 0 0 450.67 375.55" fill="#dbdbdb"/><rect x="450.67" y="300.44" width="75.11" height="75.11" fill="#dbdbdb"/><path d="M 450.67 300.44 A 75.11 75.11 0 0 1  525.78 375.55 L 450.67 300.44 A 75.11 75.11 0 0 0 525.78 375.55" fill="#dbdbdb"/><rect x="525.78" y="300.44" width="75.11" height="75.11" fill="#dbdbdb"/><path d="M 525.78 300.44 A 75.11 75.11 0 0 0 600.89 375.55 L 600.89 300.44" fill="#dbdbdb"/><rect x="600.89" y="300.44" width="75.11" height="75.11" fill="#ffffff"/><path d="M 600.89 375.55 A 75.11 75.11 0 0 1  676 300.44 L 600.89 375.55 A 75.11 75.11 0 0 0 676 300.44" fill="#ffffff"/><rect x="676" y="300.44" width="75.11" height="75.11" fill="#ffffff"/><path d="M 676 375.55 A 75.11 75.11 0 0 0 751.11 300.44 L 676 300.44" fill="#dbdbdb"/><rect x="751.11" y="300.44" width="75.11" height="75.11" fill="#ffffff"/><path d="M 751.11 375.55 A 75.11 75.11 0 0 1  826.22 300.44 L 751.11 375.55 A 75.11 75.11 0 0 0 826.22 300.44" fill="#dbdbdb"/><rect x="0" y="375.56" width="75.11" height="75.11" fill="#dbdbdb"/><path d="M 0 450.67 A 75.11 75.11 0 0 1  75.11 375.56 L 0 450.67 A 75.11 75.11 0 0 0 75.11 375.56" fill="#dbdbdb"/><rect x="75.11" y="375.56" width="75.11" height="75.11" fill="#dbdbdb"/><path d="M 75.11 375.56 A 75.11 75.11 0 0 0 150.22 450.67 L 150.22 375.56" fill="#dbdbdb"/><rect x="150.22" y="375.56" width="75.11" height="75.11" fill="#ffffff"/><path d="M 150.22 375.56 A 75.11 75.11 0 0 0 225.32999999999998 450.67 L 225.32999999999998 375.56" fill="#dbdbdb"/><rect x="225.33" y="375.56" width="75.11" height="75.11" fill="#ffffff"/><path d="M 225.33 375.56 A 75.11 75.11 0 0 1  300.44 450.67 L 225.33 375.56 A 75.11 75.11 0 0 0 300.44 450.67" fill="#dbdbdb"/><rect x="300.44" y="375.56" width="75.11" height="75.11" fill="#dbdbdb"/><path d="M 300.44 450.67 A 75.11 75.11 0 0 0 375.55 375.56 L 300.44 375.56" fill="#ffffff"/><rect x="375.56" y="375.56" width="75.11" height="75.11" fill="#ffffff"/><path d="M 375.56 375.56 A 75.11 75.11 0 0 1  450.67 450.67 L 375.56 375.56 A 75.11 75.11 0 0 0 450.67 450.67" fill="#dbdbdb"/><rect x="450.67" y="375.56" width="75.11" height="75.11" fill="#dbdbdb"/><path d="M 450.67 375.56 A 75.11 75.11 0 0 0 525.78 450.67 L 525.78 375.56" fill="#ffffff"/><rect x="525.78" y="375.56" width="75.11" height="75.11" fill="#ffffff"/><path d="M 525.78 450.67 A 75.11 75.11 0 0 0 600.89 375.56 L 525.78 375.56" fill="#dbdbdb"/><rect x="600.89" y="375.56" width="75.11" height="75.11" fill="#ffffff"/><path d="M 600.89 375.56 A 75.11 75.11 0 0 1  676 450.67 L 600.89 375.56 A 75.11 75.11 0 0 0 676 450.67" fill="#dbdbdb"/><rect x="676" y="375.56" width="75.11" height="75.11" fill="#dbdbdb"/><path d="M 676 375.56 A 75.11 75.11 0 0 1 751.11 450.67 L 676 450.67" fill="#ffffff"/><rect x="751.11" y="375.56" width="75.11" height="75.11" fill="#ffffff"/><path d="M 751.11 375.56 A 75.11 75.11 0 0 1 826.22 450.67 L 751.11 450.67" fill="#ffffff"/><rect x="0" y="450.67" width="75.11" height="75.11" fill="#dbdbdb"/><path d="M 0 525.78 A 75.11 75.11 0 0 1  75.11 450.67 L 0 525.78 A 75.11 75.11 0 0 0 75.11 450.67" fill="#ffffff"/><rect x="75.11" y="450.67" width="75.11" height="75.11" fill="#dbdbdb"/><path d="M 75.11 525.78 A 75.11 75.11 0 0 0 150.22 450.67 L 75.11 450.67" fill="#dbdbdb"/><rect x="150.22" y="450.67" width="75.11" height="75.11" fill="#dbdbdb"/><path d="M 150.22 525.78 A 75.11 75.11 0 0 0 225.32999999999998 450.67 L 150.22 450.67" fill="#ffffff"/><rect x="225.33" y="450.67" width="75.11" height="75.11" fill="#ffffff"/><path d="M 225.33 525.78 A 75.11 75.11 0 0 1  300.44 450.67 L 225.33 525.78 A 75.11 75.11 0 0 0 300.44 450.67" fill="#ffffff"/><rect x="300.44" y="450.67" width="75.11" height="75.11" fill="#ffffff"/><path d="M 300.44 525.78 A 75.11 75.11 0 0 1  375.55 450.67 L 375.55 525.78" fill="#ffffff"/><rect x="375.56" y="450.67" width="75.11" height="75.11" fill="#dbdbdb"/><path d="M 375.56 450.67 A 75.11 75.11 0 0 0 450.67 525.78 L 450.67 450.67" fill="#ffffff"/><rect x="450.67" y="450.67" width="75.11" height="75.11" fill="#ffffff"/><path d="M 450.67 450.67 A 75.11 75.11 0 0 1  525.78 525.78 L 450.67 450.67 A 75.11 75.11 0 0 0 525.78 525.78" fill="#ffffff"/><rect x="525.78" y="450.67" width="75.11" height="75.11" fill="#ffffff"/><path d="M 525.78 525.78 A 75.11 75.11 0 0 1  600.89 450.67 L 525.78 525.78 A 75.11 75.11 0 0 0 600.89 450.67" fill="#ffffff"/><rect x="600.89" y="450.67" width="75.11" height="75.11" fill="#ffffff"/><path d="M 600.89 525.78 A 75.11 75.11 0 0 1  676 450.67 L 676 525.78" fill="#dbdbdb"/><rect x="676" y="450.67" width="75.11" height="75.11" fill="#dbdbdb"/><path d="M 676 450.67 A 75.11 75.11 0 0 1  751.11 525.78 L 676 450.67 A 75.11 75.11 0 0 0 751.11 525.78" fill="#ffffff"/><rect x="751.11" y="450.67" width="75.11" height="75.11" fill="#dbdbdb"/><path d="M 751.11 525.78 A 75.11 75.11 0 0 1  826.22 450.67 L 826.22 525.78" fill="#ffffff"/><rect x="0" y="525.78" width="75.11" height="75.11" fill="#ffffff"/><path d="M 0 525.78 A 75.11 75.11 0 0 1 75.11 600.89 L 0 600.89" fill="#ffffff"/><rect x="75.11" y="525.78" width="75.11" height="75.11" fill="#ffffff"/><path d="M 75.11 600.89 A 75.11 75.11 0 0 1  150.22 525.78 L 75.11 600.89 A 75.11 75.11 0 0 0 150.22 525.78" fill="#dbdbdb"/><rect x="150.22" y="525.78" width="75.11" height="75.11" fill="#ffffff"/><path d="M 150.22 525.78 A 75.11 75.11 0 0 1 225.32999999999998 600.89 L 150.22 600.89" fill="#dbdbdb"/><rect x="225.33" y="525.78" width="75.11" height="75.11" fill="#ffffff"/><path d="M 225.33 600.89 A 75.11 75.11 0 0 1  300.44 525.78 L 300.44 600.89" fill="#ffffff"/><rect x="300.44" y="525.78" width="75.11" height="75.11" fill="#dbdbdb"/><path d="M 300.44 525.78 A 75.11 75.11 0 0 1 375.55 600.89 L 300.44 600.89" fill="#dbdbdb"/><rect x="375.56" y="525.78" width="75.11" height="75.11" fill="#ffffff"/><path d="M 375.56 600.89 A 75.11 75.11 0 0 1  450.67 525.78 L 450.67 600.89" fill="#ffffff"/><rect x="450.67" y="525.78" width="75.11" height="75.11" fill="#dbdbdb"/><path d="M 450.67 525.78 A 75.11 75.11 0 0 0 525.78 600.89 L 525.78 525.78" fill="#ffffff"/><rect x="525.78" y="525.78" width="75.11" height="75.11" fill="#ffffff"/><path d="M 525.78 600.89 A 75.11 75.11 0 0 1  600.89 525.78 L 525.78 600.89 A 75.11 75.11 0 0 0 600.89 525.78" fill="#dbdbdb"/><rect x="600.89" y="525.78" width="75.11" height="75.11" fill="#dbdbdb"/><path d="M 600.89 600.89 A 75.11 75.11 0 0 0 676 525.78 L 600.89 525.78" fill="#ffffff"/><rect x="676" y="525.78" width="75.11" height="75.11" fill="#ffffff"/><path d="M 676 600.89 A 75.11 75.11 0 0 1  751.11 525.78 L 751.11 600.89" fill="#dbdbdb"/><rect x="751.11" y="525.78" width="75.11" height="75.11" fill="#ffffff"/><path d="M 751.11 600.89 A 75.11 75.11 0 0 1  826.22 525.78 L 751.11 600.89 A 75.11 75.11 0 0 0 826.22 525.78" fill="#ffffff"/><rect x="0" y="600.89" width="75.11" height="75.11" fill="#dbdbdb"/><path d="M 0 676 A 75.11 75.11 0 0 1  75.11 600.89 L 0 676 A 75.11 75.11 0 0 0 75.11 600.89" fill="#ffffff"/><rect x="75.11" y="600.89" width="75.11" height="75.11" fill="#ffffff"/><path d="M 75.11 600.89 A 75.11 75.11 0 0 1 150.22 676 L 75.11 676" fill="#ffffff"/><rect x="150.22" y="600.89" width="75.11" height="75.11" fill="#ffffff"/><path d="M 150.22 676 A 75.11 75.11 0 0 1  225.32999999999998 600.89 L 225.32999999999998 676" fill="#ffffff"/><rect x="225.33" y="600.89" width="75.11" height="75.11" fill="#dbdbdb"/><path d="M 225.33 600.89 A 75.11 75.11 0 0 0 300.44 676 L 300.44 600.89" fill="#ffffff"/><rect x="300.44" y="600.89" width="75.11" height="75.11" fill="#ffffff"/><path d="M 300.44 676 A 75.11 75.11 0 0 0 375.55 600.89 L 300.44 600.89" fill="#dbdbdb"/><rect x="375.56" y="600.89" width="75.11" height="75.11" fill="#dbdbdb"/><path d="M 375.56 600.89 A 75.11 75.11 0 0 0 450.67 676 L 450.67 600.89" fill="#dbdbdb"/><rect x="450.67" y="600.89" width="75.11" height="75.11" fill="#dbdbdb"/><path d="M 450.67 676 A 75.11 75.11 0 0 1  525.78 600.89 L 450.67 676 A 75.11 75.11 0 0 0 525.78 600.89" fill="#ffffff"/><rect x="525.78" y="600.89" width="75.11" height="75.11" fill="#dbdbdb"/><path d="M 525.78 600.89 A 75.11 75.11 0 0 1 600.89 676 L 525.78 676" fill="#dbdbdb"/><rect x="600.89" y="600.89" width="75.11" height="75.11" fill="#ffffff"/><path d="M 600.89 600.89 A 75.11 75.11 0 0 0 676 676 L 676 600.89" fill="#ffffff"/><rect x="676" y="600.89" width="75.11" height="75.11" fill="#ffffff"/><path d="M 676 600.89 A 75.11 75.11 0 0 1 751.11 676 L 676 676" fill="#dbdbdb"/><rect x="751.11" y="600.89" width="75.11" height="75.11" fill="#ffffff"/><path d="M 751.11 676 A 75.11 75.11 0 0 1  826.22 600.89 L 826.22 676" fill="#ffffff"/></g></svg>