<?xml version="1.0" encoding="UTF-8" standalone="no"?>
<svg width="256" height="256" version="1.1" xmlns="http://www.w3.org/2000/svg" desc="Created with imagetracer.js version 1.2.6" ><path fill="rgb(20,166,191)" stroke="rgb(20,166,191)" stroke-width="1" opacity="0.9725490196078431" d="M 111.5 45 L 114 45.5 L 111.5 46 L 111.5 45 Z " /><path fill="rgb(20,166,191)" stroke="rgb(20,166,191)" stroke-width="1" opacity="0.9725490196078431" d="M 137.5 45 L 132.5 51 L 137.5 45 Z " /><path fill="rgb(20,166,191)" stroke="rgb(20,166,191)" stroke-width="1" opacity="0.9725490196078431" d="M 111.5 48 L 117 50.5 L 115.5 53 L 107.5 53 L 106 51.5 L 111.5 48 Z M 112 50 L 112 51 L 114 51 L 112 50 Z " /><path fill="rgb(20,166,191)" stroke="rgb(20,166,191)" stroke-width="1" opacity="0.9725490196078431" d="M 138.5 49 Q 146.7 49.3 151 53.5 L 151 56 L 145.5 56 L 137.5 54 L 135 51.5 L 138.5 49 Z M 139 51 L 139 53 L 144 54 L 148 54 L 139 51 Z " /><path fill="rgb(20,166,191)" stroke="rgb(20,166,191)" stroke-width="1" opacity="0.9725490196078431" d="M 123.5 51 L 126 51.5 L 123.5 52 L 123.5 51 Z " /><path fill="rgb(20,166,191)" stroke="rgb(20,166,191)" stroke-width="1" opacity="0.9725490196078431" d="M 110.5 55 L 117 55.5 L 110.5 56 L 110.5 55 Z " /><path fill="rgb(20,166,191)" stroke="rgb(20,166,191)" stroke-width="1" opacity="0.9725490196078431" d="M 148.5 73 L 151.5 77 L 148.5 73 Z " /><path fill="rgb(20,166,191)" stroke="rgb(20,166,191)" stroke-width="1" opacity="0.9725490196078431" d="M 145 77 Q 152.3 76.9 155 82.5 Q 160.7 89.3 163 99.5 L 164 111.5 Q 161 115.5 162 123.5 L 165.5 128 L 170.5 129 L 177 125.5 L 178 123.5 L 177 121.5 L 179 118.5 L 177 114.5 L 176 94.5 L 178 93.5 L 178 107.5 L 180 116.5 L 180 124.5 L 177.5 128 Q 173.8 131.3 165.5 130 L 161 126.5 L 160 117.5 Q 163.8 112.8 162 102.5 L 156 86.5 L 148.5 79 Q 144.8 77.8 146 81.5 L 145 82.5 L 145 91.5 L 151 101.5 L 156 114.5 L 158 121.5 L 158 126.5 L 151 135.5 L 151 143.5 L 147 161.5 L 146.5 177 L 145 175.5 L 145 163.5 L 148 151.5 L 150 133.5 L 155 127.5 L 154.5 126 L 156 126.5 L 156 120.5 L 149 101.5 L 143 90.5 L 143 85.5 L 145 77 Z " /><path fill="rgb(20,166,191)" stroke="rgb(20,166,191)" stroke-width="1" opacity="0.9725490196078431" d="M 156.5 81 L 158.5 84 L 156.5 81 Z " /><path fill="rgb(20,166,191)" stroke="rgb(20,166,191)" stroke-width="1" opacity="0.9725490196078431" d="M 103 83 Q 107.1 81.3 106 85.5 L 107 86.5 L 107 94.5 L 97 124.5 L 97 132.5 L 98 133.5 L 99 158.5 L 100 159.5 L 101 171.5 L 99 172.5 L 99 170.5 L 98 155.5 L 97 154.5 L 97 140.5 L 96 139.5 L 95 126 Q 92 128.7 85.5 129 L 79 125.5 Q 76.7 122.3 78 115.5 L 84 84 Q 87.3 82.7 86 87.5 L 79 118.5 L 81 125 L 88.5 127 L 94 122.5 L 93 109.5 L 103 83 Z M 103 87 L 95 109 Q 94 114 96 116 Q 95 119 98 118 L 105 96 L 105 88 L 103 87 Z " /><path fill="rgb(20,166,191)" stroke="rgb(20,166,191)" stroke-width="1" opacity="0.9725490196078431" d="M 141.5 93 L 142.5 95 L 141.5 93 Z " /><path fill="rgb(20,166,191)" stroke="rgb(20,166,191)" stroke-width="1" opacity="0.9725490196078431" d="M 180.5 96 L 181.5 98 L 180.5 96 Z " /><path fill="rgb(20,166,191)" stroke="rgb(20,166,191)" stroke-width="1" opacity="0.9725490196078431" d="M 63.5 102 L 61.5 105 L 63.5 102 Z " /><path fill="rgb(20,166,191)" stroke="rgb(20,166,191)" stroke-width="1" opacity="0.9725490196078431" d="M 174.5 105 L 175 110.5 L 174 110.5 L 174.5 105 Z " /><path fill="rgb(20,166,191)" stroke="rgb(20,166,191)" stroke-width="1" opacity="0.9725490196078431" d="M 56.5 108 L 55.5 110 L 56.5 108 Z " /><path fill="rgb(20,166,191)" stroke="rgb(20,166,191)" stroke-width="1" opacity="0.9725490196078431" d="M 39.5 123 L 38.5 125 L 39.5 123 Z " /><path fill="rgb(20,166,191)" stroke="rgb(20,166,191)" stroke-width="1" opacity="0.9725490196078431" d="M 147.5 134 L 148 137.5 L 147 137.5 L 147.5 134 Z " /><path fill="rgb(20,166,191)" stroke="rgb(20,166,191)" stroke-width="1" opacity="0.9725490196078431" d="M 122.5 135 L 127 135.5 L 122.5 136 L 122.5 135 Z " /><path fill="rgb(20,166,191)" stroke="rgb(20,166,191)" stroke-width="1" opacity="0.9725490196078431" d="M 100.5 138 L 101 141.5 L 100 141.5 L 100.5 138 Z " /><path fill="rgb(20,166,191)" stroke="rgb(20,166,191)" stroke-width="1" opacity="0.9725490196078431" d="M 121.5 139 L 122 141.5 L 121 141.5 L 121.5 139 Z " /><path fill="rgb(20,166,191)" stroke="rgb(20,166,191)" stroke-width="1" opacity="0.9725490196078431" d="M 126.5 150 L 127 158.5 L 126 158.5 L 126.5 150 Z " /><path fill="rgb(20,166,191)" stroke="rgb(20,166,191)" stroke-width="1" opacity="0.9725490196078431" d="M 208.5 152 L 205.5 156 L 208.5 152 Z " /><path fill="rgb(20,166,191)" stroke="rgb(20,166,191)" stroke-width="1" opacity="0.9725490196078431" d="M 101.5 153 L 102 156.5 L 101 156.5 L 101.5 153 Z " /><path fill="rgb(20,166,191)" stroke="rgb(20,166,191)" stroke-width="1" opacity="0.9725490196078431" d="M 119.5 154 L 120 156.5 L 119 156.5 L 119.5 154 Z " /><path fill="rgb(20,166,191)" stroke="rgb(20,166,191)" stroke-width="1" opacity="0.9725490196078431" d="M 123.5 154 L 124 170 L 121 168.5 Q 119.6 158.6 123.5 154 Z " /><path fill="rgb(20,166,191)" stroke="rgb(20,166,191)" stroke-width="1" opacity="0.9725490196078431" d="M 118.5 163 L 119 165.5 L 118 165.5 L 118.5 163 Z " /><path fill="rgb(20,166,191)" stroke="rgb(20,166,191)" stroke-width="1" opacity="0.9725490196078431" d="M 126.5 164 L 127 175.5 L 126 175.5 L 126.5 164 Z " /><path fill="rgb(20,166,191)" stroke="rgb(20,166,191)" stroke-width="1" opacity="0.9725490196078431" d="M 142.5 172 L 143 179.5 L 142 179.5 L 142.5 172 Z " /><path fill="rgb(33,113,127)" stroke="rgb(33,113,127)" stroke-width="1" opacity="0.9921568627450981" d="M 142.5 47 L 145 47.5 L 142.5 48 L 142.5 47 Z " /><path fill="rgb(33,113,127)" stroke="rgb(33,113,127)" stroke-width="1" opacity="0.9921568627450981" d="M 147.5 48 L 150 48.5 L 147.5 49 L 147.5 48 Z " /><path fill="rgb(33,113,127)" stroke="rgb(33,113,127)" stroke-width="1" opacity="0.9921568627450981" d="M 151.5 49 L 153.5 52 L 151.5 49 Z " /><path fill="rgb(33,113,127)" stroke="rgb(33,113,127)" stroke-width="1" opacity="0.9921568627450981" d="M 126.5 51 L 130 51.5 L 126.5 52 L 126.5 51 Z " /><path fill="rgb(33,113,127)" stroke="rgb(33,113,127)" stroke-width="1" opacity="0.9921568627450981" d="M 126.5 53 L 129 53.5 L 126.5 54 L 126.5 53 Z " /><path fill="rgb(33,113,127)" stroke="rgb(33,113,127)" stroke-width="1" opacity="0.9921568627450981" d="M 121.5 54 L 124 54.5 L 121.5 55 L 121.5 54 Z " /><path fill="rgb(33,113,127)" stroke="rgb(33,113,127)" stroke-width="1" opacity="0.9921568627450981" d="M 103.5 55 L 110 55.5 L 103.5 56 L 103.5 55 Z " /><path fill="rgb(33,113,127)" stroke="rgb(33,113,127)" stroke-width="1" opacity="0.9921568627450981" d="M 144.5 58 L 149 58.5 L 144.5 59 L 144.5 58 Z " /><path fill="rgb(33,113,127)" stroke="rgb(33,113,127)" stroke-width="1" opacity="0.9921568627450981" d="M 94.5 63 L 95 66.5 L 94 66.5 L 94.5 63 Z " /><path fill="rgb(33,113,127)" stroke="rgb(33,113,127)" stroke-width="1" opacity="0.9921568627450981" d="M 145.5 71 L 148 72.5 L 146.5 72 L 144.5 73 L 145.5 71 Z " /><path fill="rgb(33,113,127)" stroke="rgb(33,113,127)" stroke-width="1" opacity="0.9921568627450981" d="M 105.5 74 L 104.5 76 L 105.5 74 Z " /><path fill="rgb(33,113,127)" stroke="rgb(33,113,127)" stroke-width="1" opacity="0.9921568627450981" d="M 141.5 78 L 142 80.5 L 141 80.5 L 141.5 78 Z " /><path fill="rgb(33,113,127)" stroke="rgb(33,113,127)" stroke-width="1" opacity="0.9921568627450981" d="M 102.5 79 L 101.5 81 L 102.5 79 Z " /><path fill="rgb(33,113,127)" stroke="rgb(33,113,127)" stroke-width="1" opacity="0.9921568627450981" d="M 108.5 80 L 109 82.5 L 108 82.5 L 108.5 80 Z " /><path fill="rgb(33,113,127)" stroke="rgb(33,113,127)" stroke-width="1" opacity="0.9921568627450981" d="M 159.5 84 L 161 86.5 L 160 86.5 L 159.5 84 Z " /><path fill="rgb(33,113,127)" stroke="rgb(33,113,127)" stroke-width="1" opacity="0.9921568627450981" d="M 140.5 86 L 141 92.5 L 140 92.5 L 140.5 86 Z " /><path fill="rgb(33,113,127)" stroke="rgb(33,113,127)" stroke-width="1" opacity="0.9921568627450981" d="M 109.5 87 L 110 94.5 L 109 94.5 L 109.5 87 Z " /><path fill="rgb(33,113,127)" stroke="rgb(33,113,127)" stroke-width="1" opacity="0.9921568627450981" d="M 87.5 90 L 88 92.5 L 87 92.5 L 87.5 90 Z " /><path fill="rgb(33,113,127)" stroke="rgb(33,113,127)" stroke-width="1" opacity="0.9921568627450981" d="M 173.5 93 L 174 100.5 L 173 100.5 L 173.5 93 Z " /><path fill="rgb(33,113,127)" stroke="rgb(33,113,127)" stroke-width="1" opacity="0.9921568627450981" d="M 86.5 95 L 87 97.5 L 86 97.5 L 86.5 95 Z " /><path fill="rgb(33,113,127)" stroke="rgb(33,113,127)" stroke-width="1" opacity="0.9921568627450981" d="M 143.5 96 L 145 98.5 L 144 98.5 L 143.5 96 Z " /><path fill="rgb(33,113,127)" stroke="rgb(33,113,127)" stroke-width="1" opacity="0.9921568627450981" d="M 85.5 100 L 86 102.5 L 85 102.5 L 85.5 100 Z " /><path fill="rgb(33,113,127)" stroke="rgb(33,113,127)" stroke-width="1" opacity="0.9921568627450981" d="M 166.5 102 L 167 112.5 L 166 112.5 L 166.5 102 Z " /><path fill="rgb(33,113,127)" stroke="rgb(33,113,127)" stroke-width="1" opacity="0.9921568627450981" d="M 84.5 105 L 85 107.5 L 84 107.5 L 84.5 105 Z " /><path fill="rgb(33,113,127)" stroke="rgb(33,113,127)" stroke-width="1" opacity="0.9921568627450981" d="M 174.5 111 L 175 114.5 L 174 114.5 L 174.5 111 Z " /><path fill="rgb(33,113,127)" stroke="rgb(33,113,127)" stroke-width="1" opacity="0.9921568627450981" d="M 92.5 118 L 93 121.5 L 91 122.5 L 92.5 118 Z " /><path fill="rgb(33,113,127)" stroke="rgb(33,113,127)" stroke-width="1" opacity="0.9921568627450981" d="M 163.5 120 L 167 126.5 L 164 124.5 L 163.5 120 Z " /><path fill="rgb(33,113,127)" stroke="rgb(33,113,127)" stroke-width="1" opacity="0.9921568627450981" d="M 81.5 122 L 86 124.5 L 84.5 125 L 81.5 122 Z " /><path fill="rgb(33,113,127)" stroke="rgb(33,113,127)" stroke-width="1" opacity="0.9921568627450981" d="M 89.5 124 L 88.5 126 L 87 125.5 L 89.5 124 Z " /><path fill="rgb(33,113,127)" stroke="rgb(33,113,127)" stroke-width="1" opacity="0.9921568627450981" d="M 174.5 124 L 173.5 126 L 174.5 124 Z " /><path fill="rgb(33,113,127)" stroke="rgb(33,113,127)" stroke-width="1" opacity="0.9921568627450981" d="M 98.5 128 Q 102.3 130.3 101 137.5 L 100 137.5 L 100 131.5 Q 97 130.5 98.5 128 Z " /><path fill="rgb(33,113,127)" stroke="rgb(33,113,127)" stroke-width="1" opacity="0.9921568627450981" d="M 148.5 129 L 148 130.5 L 147.5 134 L 147 130.5 L 148.5 129 Z " /><path fill="rgb(33,113,127)" stroke="rgb(33,113,127)" stroke-width="1" opacity="0.9921568627450981" d="M 121.5 135 L 122 138.5 L 121 138.5 L 121.5 135 Z " /><path fill="rgb(33,113,127)" stroke="rgb(33,113,127)" stroke-width="1" opacity="0.9921568627450981" d="M 127.5 135 L 128 143.5 L 127 143.5 L 127.5 135 Z " /><path fill="rgb(33,113,127)" stroke="rgb(33,113,127)" stroke-width="1" opacity="0.9921568627450981" d="M 146.5 140 L 147 142.5 L 146 142.5 L 146.5 140 Z " /><path fill="rgb(33,113,127)" stroke="rgb(33,113,127)" stroke-width="1" opacity="0.9921568627450981" d="M 120.5 143 L 121 145.5 L 120 145.5 L 120.5 143 Z " /><path fill="rgb(33,113,127)" stroke="rgb(33,113,127)" stroke-width="1" opacity="0.9921568627450981" d="M 101.5 146 L 102 152.5 L 101 152.5 L 101.5 146 Z " /><path fill="rgb(33,113,127)" stroke="rgb(33,113,127)" stroke-width="1" opacity="0.9921568627450981" d="M 145.5 147 L 146 149.5 L 145 149.5 L 145.5 147 Z " /><path fill="rgb(33,113,127)" stroke="rgb(33,113,127)" stroke-width="1" opacity="0.9921568627450981" d="M 119.5 150 L 120 153.5 L 119 153.5 L 119.5 150 Z " /><path fill="rgb(33,113,127)" stroke="rgb(33,113,127)" stroke-width="1" opacity="0.9921568627450981" d="M 144.5 152 L 145 154.5 L 144 154.5 L 144.5 152 Z " /><path fill="rgb(33,113,127)" stroke="rgb(33,113,127)" stroke-width="1" opacity="0.9921568627450981" d="M 118.5 159 L 119 162.5 L 118 162.5 L 118.5 159 Z " /><path fill="rgb(33,113,127)" stroke="rgb(33,113,127)" stroke-width="1" opacity="0.9921568627450981" d="M 126.5 159 L 127 163.5 L 126 163.5 L 126.5 159 Z " /><path fill="rgb(33,113,127)" stroke="rgb(33,113,127)" stroke-width="1" opacity="0.9921568627450981" d="M 102.5 160 L 103 164.5 L 102 164.5 L 102.5 160 Z " /><path fill="rgb(33,113,127)" stroke="rgb(33,113,127)" stroke-width="1" opacity="0.9921568627450981" d="M 142.5 163 L 143 171.5 L 142 171.5 L 142.5 163 Z " /><path fill="rgb(33,113,127)" stroke="rgb(33,113,127)" stroke-width="1" opacity="0.9921568627450981" d="M 103.5 168 L 104 170.5 L 103 170.5 L 103.5 168 Z " /><path fill="rgb(33,113,127)" stroke="rgb(33,113,127)" stroke-width="1" opacity="0.9921568627450981" d="M 117.5 168 L 118.5 170 L 117.5 168 Z " /><path fill="rgb(0,0,0)" stroke="rgb(0,0,0)" stroke-width="1" opacity="0" d="M 0 0 L 256 0 L 256 256 L 0 256 L 0 0 Z M 122 10 L 120 11 L 112 21 L 102 30 Q 96 28 97 32 L 100 33 L 99 37 L 101 39 L 103 36 L 103 40 L 99 41 Q 100 43 105 43 Q 103 46 98 45 Q 97 48 102 47 L 102 48 Q 99 47 100 51 L 98 51 Q 95 64 88 75 Q 86 79 85 76 L 71 92 L 72 90 L 71 89 L 67 93 L 68 94 L 63 99 L 64 97 L 63 96 Q 58 98 61 100 L 56 105 L 57 103 L 56 102 Q 51 104 54 106 L 49 111 L 50 109 L 49 108 Q 44 110 47 112 L 42 117 L 43 115 L 42 114 L 38 118 L 39 119 L 34 124 L 33 123 L 31 126 L 33 126 Q 31 129 29 128 L 30 130 L 23 143 L 24 146 L 27 147 L 29 147 L 28 146 L 28 145 L 34 148 L 33 148 L 33 149 L 36 148 L 37 149 L 36 149 L 36 150 L 39 149 L 40 150 L 39 150 L 39 151 L 42 150 L 58 156 L 57 156 L 57 157 L 60 156 L 61 157 L 59 158 L 62 159 L 64 159 L 63 158 L 63 157 L 69 160 L 67 161 L 75 164 L 75 162 Q 79 164 76 166 L 79 167 L 79 165 L 81 166 Q 83 167 81 169 L 84 170 L 84 168 Q 86 169 84 171 L 89 173 L 89 171 L 91 172 Q 93 173 91 175 L 97 178 L 100 177 L 103 179 L 101 180 L 105 181 L 104 180 L 106 179 L 122 210 L 122 218 L 120 225 L 124 228 L 121 238 L 121 240 L 120 242 L 124 246 L 128 245 L 133 238 L 134 223 L 142 191 L 142 181 L 156 181 L 172 178 L 176 179 L 179 179 L 176 178 L 183 175 L 184 176 L 183 176 L 183 177 L 189 175 L 190 172 L 192 173 L 193 170 L 192 172 L 194 172 L 196 168 L 195 170 L 197 170 L 200 165 L 199 167 L 201 167 L 204 162 L 203 164 L 205 164 Q 209 162 206 161 L 214 153 L 215 154 L 220 147 L 218 150 L 220 150 L 223 145 L 222 147 L 224 147 Q 226 146 224 145 L 228 142 L 228 144 L 231 143 L 232 140 L 232 138 L 220 125 L 223 126 L 223 125 Q 221 120 220 123 L 214 118 L 215 117 L 211 113 L 212 116 L 207 112 L 208 111 L 206 109 L 206 111 Q 203 110 205 109 L 203 107 L 203 109 L 201 108 Q 198 107 200 106 L 198 104 L 198 106 Q 195 105 197 104 L 195 102 L 195 104 Q 192 103 194 102 L 192 100 L 192 102 Q 187 100 190 99 L 181 92 L 183 92 L 183 91 Q 182 88 181 90 L 161 67 Q 159 57 154 52 L 154 49 Q 149 46 149 40 Q 153 39 155 42 L 155 40 Q 154 37 150 38 L 148 35 L 151 36 L 154 36 Q 153 39 156 38 L 155 34 L 158 33 L 159 38 L 163 38 L 161 37 L 159 31 L 150 32 L 153 28 Q 154 25 151 26 L 151 28 L 150 27 Q 152 25 150 24 L 148 27 L 146 25 L 145 23 Q 139 24 137 22 L 133 14 L 132 12 Q 125 13 122 10 Z M 96 53 L 95 56 L 96 56 L 96 53 Z M 160 57 L 159 60 L 160 60 L 160 57 Z M 170 74 L 169 76 L 171 77 L 170 74 Z M 178 84 L 177 86 L 179 87 L 178 84 Z M 229 131 L 228 133 L 230 134 L 229 131 Z M 30 147 L 30 148 L 32 148 L 30 147 Z M 42 151 L 42 152 L 44 152 L 42 151 Z M 45 152 L 45 153 L 47 153 L 45 152 Z M 48 153 L 48 154 L 50 154 L 48 153 Z M 51 154 L 51 155 L 53 155 L 51 154 Z M 54 155 L 54 156 L 56 156 L 54 155 Z M 65 159 L 65 160 L 67 160 L 65 159 Z M 180 177 L 180 178 L 182 178 L 180 177 Z M 172 179 L 172 180 L 175 180 L 172 179 Z M 166 180 L 166 181 L 171 181 L 166 180 Z M 157 181 L 157 182 L 165 182 L 157 181 Z M 145 182 L 145 183 L 156 183 L 145 182 Z " /><path fill="rgb(0,0,0)" stroke="rgb(0,0,0)" stroke-width="1" opacity="0" d="M 84.5 78 L 81.5 82 L 84.5 78 Z " /><path fill="rgb(0,0,0)" stroke="rgb(0,0,0)" stroke-width="1" opacity="0" d="M 185.5 96 L 186.5 98 L 185.5 96 Z " /><path fill="rgb(0,0,0)" stroke="rgb(0,0,0)" stroke-width="1" opacity="0" d="M 124 181 L 127 181 L 127 189.5 L 126 189.5 L 124 181 Z " /><path fill="rgb(17,181,207)" stroke="rgb(17,181,207)" stroke-width="1" opacity="0.9372549019607843" d="M 154.5 53 L 155.5 55 L 154.5 53 Z " /><path fill="rgb(17,181,207)" stroke="rgb(17,181,207)" stroke-width="1" opacity="0.9372549019607843" d="M 89.5 73 L 88.5 75 L 89.5 73 Z " /><path fill="rgb(17,181,207)" stroke="rgb(17,181,207)" stroke-width="1" opacity="0.9372549019607843" d="M 166.5 74 L 168.5 77 L 166.5 74 Z " /><path fill="rgb(17,181,207)" stroke="rgb(17,181,207)" stroke-width="1" opacity="0.9372549019607843" d="M 87.5 76 L 75.5 89 L 87.5 76 Z " /><path fill="rgb(17,181,207)" stroke="rgb(17,181,207)" stroke-width="1" opacity="0.9372549019607843" d="M 169.5 78 L 172.5 82 L 169.5 78 Z " /><path fill="rgb(17,181,207)" stroke="rgb(17,181,207)" stroke-width="1" opacity="0.9372549019607843" d="M 173.5 83 L 176.5 87 L 173.5 83 Z " /><path fill="rgb(17,181,207)" stroke="rgb(17,181,207)" stroke-width="1" opacity="0.9372549019607843" d="M 83.5 84 L 84 87.5 L 36 130.5 L 31 139.5 L 32.5 141 L 69.5 153 L 100 171.5 Q 98.7 174.3 97.5 172 L 66.5 154 L 34.5 144 L 29 140.5 L 32 132.5 L 42.5 120 Q 59.1 108.6 72.5 94 L 79 90 L 83.5 84 Z " /><path fill="rgb(17,181,207)" stroke="rgb(17,181,207)" stroke-width="1" opacity="0.9372549019607843" d="M 177.5 88 L 180.5 92 L 177.5 88 Z " /><path fill="rgb(17,181,207)" stroke="rgb(17,181,207)" stroke-width="1" opacity="0.9372549019607843" d="M 71.5 91 L 66.5 97 L 71.5 91 Z " /><path fill="rgb(17,181,207)" stroke="rgb(17,181,207)" stroke-width="1" opacity="0.9372549019607843" d="M 178.5 94 L 181.5 98 L 214 122.5 L 226 136.5 L 226 138.5 Q 213.9 145.4 205 155.5 L 202.5 159 L 186.5 170 L 175.5 174 L 147 177 L 147.5 175 L 159.5 175 L 175.5 172 L 185.5 168 L 211 148 L 212.5 145 L 223 137.5 L 220 132.5 L 204.5 117 L 185.5 105 L 178 97.5 L 178.5 94 Z " /><path fill="rgb(17,181,207)" stroke="rgb(17,181,207)" stroke-width="1" opacity="0.9372549019607843" d="M 182.5 94 L 188.5 101 L 182.5 94 Z " /><path fill="rgb(17,181,207)" stroke="rgb(17,181,207)" stroke-width="1" opacity="0.9372549019607843" d="M 63.5 98 L 59.5 103 L 63.5 98 Z " /><path fill="rgb(17,181,207)" stroke="rgb(17,181,207)" stroke-width="1" opacity="0.9372549019607843" d="M 191.5 102 L 192.5 104 L 191.5 102 Z " /><path fill="rgb(17,181,207)" stroke="rgb(17,181,207)" stroke-width="1" opacity="0.9372549019607843" d="M 56.5 104 L 52.5 109 L 56.5 104 Z " /><path fill="rgb(17,181,207)" stroke="rgb(17,181,207)" stroke-width="1" opacity="0.9372549019607843" d="M 194.5 104 L 195.5 106 L 194.5 104 Z " /><path fill="rgb(17,181,207)" stroke="rgb(17,181,207)" stroke-width="1" opacity="0.9372549019607843" d="M 197.5 106 L 198.5 108 L 197.5 106 Z " /><path fill="rgb(17,181,207)" stroke="rgb(17,181,207)" stroke-width="1" opacity="0.9372549019607843" d="M 49.5 110 L 45.5 115 L 49.5 110 Z " /><path fill="rgb(17,181,207)" stroke="rgb(17,181,207)" stroke-width="1" opacity="0.9372549019607843" d="M 205.5 111 L 207.5 114 L 205.5 111 Z " /><path fill="rgb(17,181,207)" stroke="rgb(17,181,207)" stroke-width="1" opacity="0.9372549019607843" d="M 210.5 115 L 221.5 127 L 210.5 115 Z " /><path fill="rgb(17,181,207)" stroke="rgb(17,181,207)" stroke-width="1" opacity="0.9372549019607843" d="M 42.5 116 L 33.5 126 L 42.5 116 Z " /><path fill="rgb(17,181,207)" stroke="rgb(17,181,207)" stroke-width="1" opacity="0.9372549019607843" d="M 32.5 127 L 30.5 130 L 32.5 127 Z " /><path fill="rgb(17,181,207)" stroke="rgb(17,181,207)" stroke-width="1" opacity="0.9372549019607843" d="M 223.5 129 L 227.5 134 L 223.5 129 Z " /><path fill="rgb(17,181,207)" stroke="rgb(17,181,207)" stroke-width="1" opacity="0.9372549019607843" d="M 28.5 133 L 28 134.5 L 25.5 140 L 25 138.5 L 28.5 133 Z " /><path fill="rgb(17,181,207)" stroke="rgb(17,181,207)" stroke-width="1" opacity="0.9372549019607843" d="M 229.5 136 Q 234 138 230.5 140 L 229.5 136 Z " /><path fill="rgb(17,181,207)" stroke="rgb(17,181,207)" stroke-width="1" opacity="0.9372549019607843" d="M 228.5 140 L 227.5 142 L 228.5 140 Z " /><path fill="rgb(17,181,207)" stroke="rgb(17,181,207)" stroke-width="1" opacity="0.9372549019607843" d="M 223.5 143 L 222.5 145 L 223.5 143 Z " /><path fill="rgb(17,181,207)" stroke="rgb(17,181,207)" stroke-width="1" opacity="0.9372549019607843" d="M 220.5 145 L 219.5 147 L 220.5 145 Z " /><path fill="rgb(17,181,207)" stroke="rgb(17,181,207)" stroke-width="1" opacity="0.9372549019607843" d="M 216.5 148 L 203.5 162 L 216.5 148 Z " /><path fill="rgb(17,181,207)" stroke="rgb(17,181,207)" stroke-width="1" opacity="0.9372549019607843" d="M 73.5 160 L 74.5 162 L 73.5 160 Z " /><path fill="rgb(17,181,207)" stroke="rgb(17,181,207)" stroke-width="1" opacity="0.9372549019607843" d="M 76.5 162 L 77.5 164 L 76.5 162 Z " /><path fill="rgb(17,181,207)" stroke="rgb(17,181,207)" stroke-width="1" opacity="0.9372549019607843" d="M 200.5 163 L 199.5 165 L 200.5 163 Z " /><path fill="rgb(17,181,207)" stroke="rgb(17,181,207)" stroke-width="1" opacity="0.9372549019607843" d="M 197.5 165 L 195.5 168 L 197.5 165 Z " /><path fill="rgb(17,181,207)" stroke="rgb(17,181,207)" stroke-width="1" opacity="0.9372549019607843" d="M 82.5 166 L 83.5 168 L 82.5 166 Z " /><path fill="rgb(17,181,207)" stroke="rgb(17,181,207)" stroke-width="1" opacity="0.9372549019607843" d="M 193.5 168 L 192.5 170 L 193.5 168 Z " /><path fill="rgb(17,181,207)" stroke="rgb(17,181,207)" stroke-width="1" opacity="0.9372549019607843" d="M 87.5 169 L 88.5 171 L 87.5 169 Z " /><path fill="rgb(17,181,207)" stroke="rgb(17,181,207)" stroke-width="1" opacity="0.9372549019607843" d="M 188.5 171 L 187.5 173 L 186 172.5 L 188.5 171 Z " /><path fill="rgb(17,181,207)" stroke="rgb(17,181,207)" stroke-width="1" opacity="0.9372549019607843" d="M 170.5 177 L 173 177.5 L 170.5 178 L 170.5 177 Z " /><path fill="rgb(17,181,207)" stroke="rgb(17,181,207)" stroke-width="1" opacity="0.9372549019607843" d="M 163.5 178 L 167 178.5 L 163.5 179 L 163.5 178 Z " /><path fill="rgb(17,181,207)" stroke="rgb(17,181,207)" stroke-width="1" opacity="0.9372549019607843" d="M 153.5 179 L 160 179.5 L 153.5 180 L 153.5 179 Z " /><path fill="rgb(17,182,209)" stroke="rgb(17,182,209)" stroke-width="1" opacity="0.996078431372549" d="M 109.5 46 L 116.5 46 L 117 47.5 Q 120.1 53.4 130.5 52 L 137.5 46 L 139.5 46 Q 142.7 49.3 149.5 49 L 154 52.5 L 158 60.5 L 156.5 61 L 150.5 58 L 143.5 58 L 129.5 53 L 124.5 53 L 119.5 55 L 101.5 55 L 98 56 L 101.5 50 L 109.5 46 Z M 112 48 L 106 52 L 108 53 L 116 53 L 117 51 L 112 48 Z M 139 49 L 135 52 L 138 54 L 146 56 L 151 56 L 151 54 Q 147 49 139 49 Z " /><path fill="rgb(17,182,209)" stroke="rgb(17,182,209)" stroke-width="1" opacity="0.996078431372549" d="M 111.5 50 L 114 50.5 L 111.5 51 L 111.5 50 Z " /><path fill="rgb(17,182,209)" stroke="rgb(17,182,209)" stroke-width="1" opacity="0.996078431372549" d="M 139 51 L 148 53.5 L 143.5 54 L 139 53 L 139 51 Z " /><path fill="rgb(17,182,209)" stroke="rgb(17,182,209)" stroke-width="1" opacity="0.996078431372549" d="M 93.5 66 L 94 67.5 L 87 89.5 L 81 122.5 L 88.5 126 L 93 121.5 L 93 118.5 Q 90 115.5 91 108.5 Q 96.4 88.4 106.5 73 L 109 85.5 L 109 95.5 L 98 129.5 L 100 131.5 L 102 166.5 L 105 177.5 L 103.5 177 L 89.5 171 L 69.5 158 L 25 143 Q 29.8 124.7 44.5 115 Q 67.8 97.3 88 76.5 L 93.5 66 Z M 103 83 L 93 110 L 94 123 L 89 127 L 81 125 L 79 119 L 86 84 L 84 84 L 43 120 L 32 133 L 29 141 L 35 144 L 67 154 L 99 173 L 101 172 L 100 160 L 99 159 L 98 134 L 97 133 L 97 125 L 107 95 L 107 87 L 106 86 Q 107 81 103 83 Z " /><path fill="rgb(17,182,209)" stroke="rgb(17,182,209)" stroke-width="1" opacity="0.996078431372549" d="M 145 72 L 156 80.5 L 160 85.5 L 165 98.5 L 166 113.5 L 163 119.5 L 163 122.5 L 166.5 127 L 171.5 127 L 178 122.5 L 175 115.5 L 174 91.5 L 167 76.5 L 169 77.5 L 188.5 101 L 208.5 114 L 223 128.5 L 231 138.5 Q 213.4 147.9 201.5 163 L 183.5 174 L 169.5 178 L 143 180 L 143 162.5 L 147 144.5 L 148 130 L 155 127 L 154 120.5 L 146 99.5 L 141 92.5 L 141 83.5 Q 143.3 82.3 142 77.5 L 145 72 Z M 145 77 L 143 86 L 143 91 L 149 102 L 156 121 L 156 127 L 150 134 L 148 152 L 145 164 L 145 176 L 147 177 L 165 176 L 185 171 L 203 159 Q 212 146 226 139 L 223 133 L 214 123 Q 204 112 190 105 L 178 93 L 176 95 L 177 115 L 179 120 L 179 122 L 177 126 L 171 129 L 166 128 L 162 124 Q 161 116 164 112 L 163 100 Q 161 89 155 83 Q 152 77 145 77 Z " /><path fill="rgb(17,182,209)" stroke="rgb(17,182,209)" stroke-width="1" opacity="0.996078431372549" d="M 146 79 L 148.5 79 L 156 86.5 L 162 102.5 L 162 113.5 Q 158.8 116.8 160 124.5 L 163.5 129 Q 166.7 131.3 173.5 130 L 179 126.5 Q 181.3 123.3 180 116.5 L 178 107.5 L 178 98.5 L 185.5 105 Q 206.3 115.3 220 132.5 L 223 137.5 L 211 146.5 Q 211.8 148.8 209.5 148 Q 198.2 161.7 181.5 170 L 166.5 174 L 147 175 L 147 161.5 L 151 143.5 L 151 135.5 L 157 128.5 L 158 121.5 L 151 101.5 L 145 91.5 L 145 82.5 L 146 79 Z " /><path fill="rgb(17,182,209)" stroke="rgb(17,182,209)" stroke-width="1" opacity="0.996078431372549" d="M 103 87 L 105 87.5 L 105 95.5 L 98 118 Q 95 119.3 96 115.5 Q 93.5 114 95 108.5 L 103 87 Z " /><path fill="rgb(17,182,209)" stroke="rgb(17,182,209)" stroke-width="1" opacity="0.996078431372549" d="M 83.5 88 L 83 89.5 L 80 109.5 L 78 115.5 L 78 123.5 L 80.5 127 L 88.5 129 L 95 126 L 96 139.5 L 97 140.5 L 97 154.5 L 98 155.5 L 99 169.5 L 97.5 169 L 69.5 153 L 32.5 141 L 31 139.5 Q 37 126 48.5 118 L 83.5 88 Z " /><path fill="rgb(17,182,209)" stroke="rgb(17,182,209)" stroke-width="1" opacity="0.996078431372549" d="M 122 136 L 127 136 L 127 149.5 L 126 150.5 L 126 175.5 L 127 180 L 123 178.5 L 122 173.5 L 118 168.5 L 118 166.5 L 119 165.5 L 119 157.5 L 120 156.5 L 120 148.5 L 122 136 Z M 124 154 Q 120 159 121 169 L 124 170 L 124 154 Z " /><path fill="rgb(6,184,216)" stroke="rgb(6,184,216)" stroke-width="1" opacity="0.0784313725490196" d="M 98.5 49 L 99 51.5 L 97.5 55 L 96.5 53 L 96 55.5 L 96.5 57 L 94 56.5 L 98.5 49 Z " /><path fill="rgb(6,184,216)" stroke="rgb(6,184,216)" stroke-width="1" opacity="0.0784313725490196" d="M 154.5 52 L 158 53.5 L 161 61.5 Q 159.5 64.5 158 61.5 L 159 57.5 L 158 57.5 L 157.5 59 L 157 57.5 L 158 55.5 L 156 55.5 L 157 53.5 Q 154.9 55.1 154.5 52 Z " /><path fill="rgb(6,184,216)" stroke="rgb(6,184,216)" stroke-width="1" opacity="0.0784313725490196" d="M 91.5 64 L 93 66.5 L 91 66.5 L 92 68.5 L 90 68.5 L 91 70.5 L 89 70.5 L 90 72.5 L 87 73.5 L 88 75.5 L 81 81.5 L 72.5 91 Q 71.3 88.8 70 91.5 L 64.5 98 Q 63.3 95.7 62 98.5 L 57.5 104 Q 56.3 101.8 55 104.5 L 50.5 110 Q 49.3 107.8 48 110.5 L 43.5 116 Q 42.3 113.7 41 116.5 L 33.5 125 L 32 125.5 Q 34.8 127.3 30.5 129 L 29 129.5 L 29.5 131 L 28 130.5 L 29 132.5 L 26 133.5 L 27 135.5 L 25 135.5 L 26 137.5 L 24 137.5 L 25 140.5 L 24 140.5 L 23.5 139 L 22.5 141 L 22 139.5 Q 28.9 123.9 41.5 114 Q 65.7 96.2 86 74.5 L 91.5 64 Z " /><path fill="rgb(6,184,216)" stroke="rgb(6,184,216)" stroke-width="1" opacity="0.0784313725490196" d="M 163.5 69 L 167 70.5 Q 177.4 87.1 191.5 100 Q 210.3 109.2 223 124.5 L 234 138.5 L 233 138.5 L 232.5 137 L 231.5 138 L 228 134.5 L 228 132.5 L 227.5 131 L 226.5 132 L 222 127.5 Q 224.8 125.7 220.5 124 L 212 116.5 L 210.5 114 L 209.5 115 L 206 111.5 L 205.5 110 L 203.5 110 L 201 108.5 L 201.5 107 L 199.5 108 L 197.5 105 Q 196.3 107.3 195 104.5 L 194.5 103 Q 193.3 105.3 192 102.5 L 191.5 101 L 190.5 102 L 187 98.5 L 185.5 96 L 181 92.5 L 181.5 91 L 177 87.5 L 177 85.5 L 176.5 84 Q 174.8 86.8 173 82.5 L 173 80.5 L 172.5 79 Q 170.8 81.8 169 77.5 L 169 75.5 L 168.5 74 Q 166.8 76.8 165 72.5 L 166 70.5 Q 163.9 72.1 163.5 69 Z " /><path fill="rgb(6,184,216)" stroke="rgb(6,184,216)" stroke-width="1" opacity="0.0784313725490196" d="M 231.5 139 L 232 141.5 L 230.5 143 L 222.5 147 Q 206.6 165.1 184.5 177 L 164.5 182 L 144.5 183 L 144.5 182 L 156 181.5 L 145 180.5 L 155.5 180 L 156.5 181 L 164.5 181 L 164.5 180 L 160 179.5 L 164.5 179 Q 165.7 181.3 170.5 180 L 170.5 179 L 167 178.5 L 170.5 178 L 174.5 179 L 174.5 178 L 173 177.5 L 175.5 177 L 178.5 178 L 178.5 177 L 177 176.5 L 178.5 176 L 181.5 177 L 181.5 176 L 180 175.5 L 181.5 175 L 183.5 176 L 183.5 174 L 186.5 173 L 188 173.5 L 189.5 171 L 191.5 170 L 193 170.5 L 194.5 168 L 196 168.5 L 198.5 165 L 200 165.5 L 202.5 162 L 204 162.5 L 218.5 147 L 220 147.5 L 221.5 145 L 223 145.5 L 224.5 143 L 226.5 144 L 226.5 142 L 228 142.5 L 229.5 140 L 231.5 139 Z " /><path fill="rgb(6,184,216)" stroke="rgb(6,184,216)" stroke-width="1" opacity="0.0784313725490196" d="M 21.5 142 L 24.5 143 L 28 144.5 L 27.5 146 L 30.5 145 L 30.5 146 L 29 146.5 L 31.5 147 L 33.5 146 L 36 147.5 L 35.5 149 L 38.5 148 L 38.5 150 L 42.5 149 L 42.5 150 L 41 150.5 L 43.5 151 L 45.5 150 L 45.5 151 L 44 151.5 L 46.5 152 L 48.5 151 L 48.5 152 L 47 152.5 L 49.5 153 L 51.5 152 L 51.5 153 L 50 153.5 L 52.5 154 L 54.5 153 L 54.5 154 L 53 154.5 L 55.5 155 L 57 154.5 L 56.5 156 L 59.5 155 L 59.5 157 L 62.5 156 L 62.5 158 L 65.5 157 L 65.5 158 L 64 158.5 L 66.5 159 L 68 158.5 L 67.5 160 L 70.5 159 L 74 161.5 L 74.5 163 Q 76 160.5 77.5 164 L 80 165.5 L 79.5 167 L 81.5 166 L 83.5 169 L 85.5 169 L 88 170.5 L 88.5 172 L 90 171.5 L 89.5 173 L 91.5 172 L 100 176.5 L 99.5 178 L 101.5 177 L 101.5 179 L 104.5 178 L 104.5 181 L 92.5 176 L 66.5 160 L 24 146 L 23.5 143 Q 21.7 145.5 21.5 142 Z " /><path fill="rgb(6,184,216)" stroke="rgb(6,184,216)" stroke-width="1" opacity="0.0784313725490196" d="M 124.5 180 L 127 180.5 L 124.5 181 L 124.5 180 Z " /><path fill="rgb(49,51,52)" stroke="rgb(49,51,52)" stroke-width="1" opacity="0.9764705882352941" d="M 121.5 10 Q 124.8 12.7 131.5 12 L 133 13.5 L 137 22 Q 139.1 23.6 144.5 23 L 146 24.5 L 147.5 27 L 149.5 24 L 153 26 L 150 32 L 158.5 31 L 161 37 L 163 37.5 L 159 38 L 157.5 33 L 155 34 L 156 38 L 154 38.5 L 155 41.5 L 152.5 40 Q 147.7 38.3 149 42.5 L 154 48.5 L 154 50.5 L 151.5 49 L 137.5 45 L 130.5 51 L 123.5 51 L 118 47.5 Q 118.8 45.3 116.5 46 Q 115 43.5 109.5 45 Q 106.7 49.2 100.5 50 L 101.5 47 Q 96.7 48.3 98 45 Q 103 45.8 105 42.5 Q 100.4 43.1 99 40.5 L 103 40 L 102.5 36 L 100.5 39 L 99 36.5 L 100 33 L 97 31.5 Q 96.1 28.1 101.5 30 L 112 20.5 L 119.5 11 L 121.5 10 Z M 148 35 L 150 38 Q 155 40 154 36 L 148 35 Z " /><path fill="rgb(49,51,52)" stroke="rgb(49,51,52)" stroke-width="1" opacity="0.9764705882352941" d="M 124.5 54 L 129.5 54 L 144.5 59 L 151.5 59 L 160 63.5 L 173 90.5 L 174 114.5 L 177 122.5 L 169.5 127 L 165 124.5 L 164 119.5 Q 168.5 114 167 102.5 L 161 85.5 L 146.5 71 L 144 72.5 L 141 78.5 L 140 92.5 L 146 101.5 L 154 123.5 L 154 127 L 147 130.5 L 146 146.5 L 142 163.5 L 142 190.5 L 134 222.5 L 133 237.5 L 127.5 245 L 123.5 246 L 120 241.5 L 121 239.5 L 121 237.5 L 124 227.5 L 120 224.5 L 122 217.5 L 122 209.5 L 105 176.5 L 102 159.5 L 101 131.5 L 99 127.5 L 109 98.5 L 110 87.5 L 106.5 72 L 101 80.5 L 94 96.5 L 90 109.5 L 90 114.5 Q 92.8 116.2 92 121.5 Q 91.5 125.5 86.5 125 L 81 121.5 L 83 117.5 L 91 76.5 L 95 66.5 Q 94.1 59.7 96 57 L 100.5 56 L 118.5 56 L 124.5 54 Z M 121 135 L 119 159 L 118 160 L 118 168 L 117 169 Q 125 176 127 190 L 127 145 L 128 144 L 128 135 L 121 135 Z " /></svg>