<?xml version="1.0" encoding="UTF-8" standalone="no"?>
<svg width="256" height="256" version="1.1" xmlns="http://www.w3.org/2000/svg" desc="Created with imagetracer.js version 1.2.6" ><path fill="rgb(23,160,182)" stroke="rgb(23,160,182)" stroke-width="1" opacity="0.996078431372549" d="M 111.5 45 L 114 45.5 L 111.5 46 L 111.5 45 Z " /><path fill="rgb(23,160,182)" stroke="rgb(23,160,182)" stroke-width="1" opacity="0.996078431372549" d="M 137.5 45 L 132.5 51 L 137.5 45 Z " /><path fill="rgb(23,160,182)" stroke="rgb(23,160,182)" stroke-width="1" opacity="0.996078431372549" d="M 117.5 47 L 119.5 50 L 117.5 47 Z " /><path fill="rgb(23,160,182)" stroke="rgb(23,160,182)" stroke-width="1" opacity="0.996078431372549" d="M 123.5 51 L 126 51.5 L 123.5 52 L 123.5 51 Z " /><path fill="rgb(23,160,182)" stroke="rgb(23,160,182)" stroke-width="1" opacity="0.996078431372549" d="M 108.5 55 L 117 55.5 L 108.5 56 L 108.5 55 Z " /><path fill="rgb(23,160,182)" stroke="rgb(23,160,182)" stroke-width="1" opacity="0.996078431372549" d="M 148.5 58 L 151 58.5 L 148.5 59 L 148.5 58 Z " /><path fill="rgb(23,160,182)" stroke="rgb(23,160,182)" stroke-width="1" opacity="0.996078431372549" d="M 148.5 73 L 151.5 77 L 148.5 73 Z " /><path fill="rgb(23,160,182)" stroke="rgb(23,160,182)" stroke-width="1" opacity="0.996078431372549" d="M 141.5 80 L 142 82.5 L 141 82.5 L 141.5 80 Z " /><path fill="rgb(23,160,182)" stroke="rgb(23,160,182)" stroke-width="1" opacity="0.996078431372549" d="M 157.5 82 L 159.5 85 L 157.5 82 Z " /><path fill="rgb(23,160,182)" stroke="rgb(23,160,182)" stroke-width="1" opacity="0.996078431372549" d="M 173.5 91 L 174 93.5 L 173 93.5 L 173.5 91 Z " /><path fill="rgb(23,160,182)" stroke="rgb(23,160,182)" stroke-width="1" opacity="0.996078431372549" d="M 141.5 93 L 142.5 95 L 141.5 93 Z " /><path fill="rgb(23,160,182)" stroke="rgb(23,160,182)" stroke-width="1" opacity="0.996078431372549" d="M 174.5 106 L 175 111.5 L 174 111.5 L 174.5 106 Z " /><path fill="rgb(23,160,182)" stroke="rgb(23,160,182)" stroke-width="1" opacity="0.996078431372549" d="M 90.5 111 L 91 113.5 L 90 113.5 L 90.5 111 Z " /><path fill="rgb(23,160,182)" stroke="rgb(23,160,182)" stroke-width="1" opacity="0.996078431372549" d="M 177.5 121 L 178 122.5 L 176 123.5 L 177.5 121 Z " /><path fill="rgb(23,160,182)" stroke="rgb(23,160,182)" stroke-width="1" opacity="0.996078431372549" d="M 90.5 123 L 88.5 126 L 87 125.5 L 90.5 123 Z " /><path fill="rgb(23,160,182)" stroke="rgb(23,160,182)" stroke-width="1" opacity="0.996078431372549" d="M 154.5 124 L 155 126.5 L 154 126.5 L 154.5 124 Z " /><path fill="rgb(23,160,182)" stroke="rgb(23,160,182)" stroke-width="1" opacity="0.996078431372549" d="M 147.5 133 L 148 136.5 L 147 136.5 L 147.5 133 Z " /><path fill="rgb(23,160,182)" stroke="rgb(23,160,182)" stroke-width="1" opacity="0.996078431372549" d="M 122.5 135 L 127 135.5 L 122.5 136 L 122.5 135 Z " /><path fill="rgb(23,160,182)" stroke="rgb(23,160,182)" stroke-width="1" opacity="0.996078431372549" d="M 100.5 137 L 101 141.5 L 100 141.5 L 100.5 137 Z " /><path fill="rgb(23,160,182)" stroke="rgb(23,160,182)" stroke-width="1" opacity="0.996078431372549" d="M 121.5 138 L 122 140.5 L 121 140.5 L 121.5 138 Z " /><path fill="rgb(23,160,182)" stroke="rgb(23,160,182)" stroke-width="1" opacity="0.996078431372549" d="M 126.5 151 L 127 173.5 L 126 173.5 L 126.5 151 Z " /><path fill="rgb(23,160,182)" stroke="rgb(23,160,182)" stroke-width="1" opacity="0.996078431372549" d="M 101.5 152 L 102 156.5 L 101 156.5 L 101.5 152 Z " /><path fill="rgb(23,160,182)" stroke="rgb(23,160,182)" stroke-width="1" opacity="0.996078431372549" d="M 118.5 163 L 119 165.5 L 118 165.5 L 118.5 163 Z " /><path fill="rgb(23,160,182)" stroke="rgb(23,160,182)" stroke-width="1" opacity="0.996078431372549" d="M 118.5 169 L 119.5 171 L 118.5 169 Z " /><path fill="rgb(23,160,182)" stroke="rgb(23,160,182)" stroke-width="1" opacity="0.996078431372549" d="M 142.5 170 L 143 179.5 L 142 179.5 L 142.5 170 Z " /><path fill="rgb(34,114,127)" stroke="rgb(34,114,127)" stroke-width="1" opacity="0.9921568627450981" d="M 151.5 49 L 153.5 52 L 151.5 49 Z " /><path fill="rgb(34,114,127)" stroke="rgb(34,114,127)" stroke-width="1" opacity="0.9921568627450981" d="M 126.5 51 L 130 51.5 L 126.5 52 L 126.5 51 Z " /><path fill="rgb(34,114,127)" stroke="rgb(34,114,127)" stroke-width="1" opacity="0.9921568627450981" d="M 126.5 53 L 129 53.5 L 126.5 54 L 126.5 53 Z " /><path fill="rgb(34,114,127)" stroke="rgb(34,114,127)" stroke-width="1" opacity="0.9921568627450981" d="M 103.5 55 L 108 55.5 L 103.5 56 L 103.5 55 Z " /><path fill="rgb(34,114,127)" stroke="rgb(34,114,127)" stroke-width="1" opacity="0.9921568627450981" d="M 144.5 58 L 148 58.5 L 144.5 59 L 144.5 58 Z " /><path fill="rgb(34,114,127)" stroke="rgb(34,114,127)" stroke-width="1" opacity="0.9921568627450981" d="M 94.5 64 L 95 66.5 L 94 66.5 L 94.5 64 Z " /><path fill="rgb(34,114,127)" stroke="rgb(34,114,127)" stroke-width="1" opacity="0.9921568627450981" d="M 145.5 71 L 148 72.5 L 146.5 72 L 144.5 73 L 145.5 71 Z " /><path fill="rgb(34,114,127)" stroke="rgb(34,114,127)" stroke-width="1" opacity="0.9921568627450981" d="M 102.5 79 L 101.5 81 L 102.5 79 Z " /><path fill="rgb(34,114,127)" stroke="rgb(34,114,127)" stroke-width="1" opacity="0.9921568627450981" d="M 108.5 80 L 109 82.5 L 108 82.5 L 108.5 80 Z " /><path fill="rgb(34,114,127)" stroke="rgb(34,114,127)" stroke-width="1" opacity="0.9921568627450981" d="M 140.5 86 L 141 92.5 L 140 92.5 L 140.5 86 Z " /><path fill="rgb(34,114,127)" stroke="rgb(34,114,127)" stroke-width="1" opacity="0.9921568627450981" d="M 109.5 87 L 110 91.5 L 109 91.5 L 109.5 87 Z " /><path fill="rgb(34,114,127)" stroke="rgb(34,114,127)" stroke-width="1" opacity="0.9921568627450981" d="M 173.5 94 L 174 100.5 L 173 100.5 L 173.5 94 Z " /><path fill="rgb(34,114,127)" stroke="rgb(34,114,127)" stroke-width="1" opacity="0.9921568627450981" d="M 86.5 95 L 87 97.5 L 86 97.5 L 86.5 95 Z " /><path fill="rgb(34,114,127)" stroke="rgb(34,114,127)" stroke-width="1" opacity="0.9921568627450981" d="M 85.5 100 L 86 102.5 L 85 102.5 L 85.5 100 Z " /><path fill="rgb(34,114,127)" stroke="rgb(34,114,127)" stroke-width="1" opacity="0.9921568627450981" d="M 166.5 102 L 167 112.5 L 166 112.5 L 166.5 102 Z " /><path fill="rgb(34,114,127)" stroke="rgb(34,114,127)" stroke-width="1" opacity="0.9921568627450981" d="M 174.5 112 L 175 114.5 L 174 114.5 L 174.5 112 Z " /><path fill="rgb(34,114,127)" stroke="rgb(34,114,127)" stroke-width="1" opacity="0.9921568627450981" d="M 92.5 119 L 93 121.5 L 91 122.5 L 92.5 119 Z " /><path fill="rgb(34,114,127)" stroke="rgb(34,114,127)" stroke-width="1" opacity="0.9921568627450981" d="M 148.5 129 L 148 130.5 L 147.5 133 L 147 130.5 L 148.5 129 Z " /><path fill="rgb(34,114,127)" stroke="rgb(34,114,127)" stroke-width="1" opacity="0.9921568627450981" d="M 99.5 130 L 101 131.5 L 101 136.5 L 100 136.5 L 99.5 130 Z " /><path fill="rgb(34,114,127)" stroke="rgb(34,114,127)" stroke-width="1" opacity="0.9921568627450981" d="M 121.5 135 L 122 137.5 L 121 137.5 L 121.5 135 Z " /><path fill="rgb(34,114,127)" stroke="rgb(34,114,127)" stroke-width="1" opacity="0.9921568627450981" d="M 127.5 135 L 128 144.5 L 127 144.5 L 127.5 135 Z " /><path fill="rgb(34,114,127)" stroke="rgb(34,114,127)" stroke-width="1" opacity="0.9921568627450981" d="M 146.5 140 L 147 142.5 L 146 142.5 L 146.5 140 Z " /><path fill="rgb(34,114,127)" stroke="rgb(34,114,127)" stroke-width="1" opacity="0.9921568627450981" d="M 120.5 143 L 121 145.5 L 120 145.5 L 120.5 143 Z " /><path fill="rgb(34,114,127)" stroke="rgb(34,114,127)" stroke-width="1" opacity="0.9921568627450981" d="M 101.5 146 L 102 151.5 L 101 151.5 L 101.5 146 Z " /><path fill="rgb(34,114,127)" stroke="rgb(34,114,127)" stroke-width="1" opacity="0.9921568627450981" d="M 145.5 146 L 146 148.5 L 145 148.5 L 145.5 146 Z " /><path fill="rgb(34,114,127)" stroke="rgb(34,114,127)" stroke-width="1" opacity="0.9921568627450981" d="M 119.5 150 L 120 153.5 L 119 153.5 L 119.5 150 Z " /><path fill="rgb(34,114,127)" stroke="rgb(34,114,127)" stroke-width="1" opacity="0.9921568627450981" d="M 144.5 152 L 145 154.5 L 144 154.5 L 144.5 152 Z " /><path fill="rgb(34,114,127)" stroke="rgb(34,114,127)" stroke-width="1" opacity="0.9921568627450981" d="M 118.5 159 L 119 162.5 L 118 162.5 L 118.5 159 Z " /><path fill="rgb(34,114,127)" stroke="rgb(34,114,127)" stroke-width="1" opacity="0.9921568627450981" d="M 102.5 160 L 103 164.5 L 102 164.5 L 102.5 160 Z " /><path fill="rgb(34,114,127)" stroke="rgb(34,114,127)" stroke-width="1" opacity="0.9921568627450981" d="M 142.5 163 L 143 169.5 L 142 169.5 L 142.5 163 Z " /><path fill="rgb(34,114,127)" stroke="rgb(34,114,127)" stroke-width="1" opacity="0.9921568627450981" d="M 103.5 168 L 104 170.5 L 103 170.5 L 103.5 168 Z " /><path fill="rgb(0,0,0)" stroke="rgb(0,0,0)" stroke-width="1" opacity="0" d="M 0 0 L 256 0 L 256 256 L 0 256 L 0 0 Z M 122 10 L 120 11 L 112 21 L 102 30 L 97 30 L 97 32 L 100 33 L 99 37 L 101 39 L 103 36 L 103 40 L 99 41 L 101 42 L 105 43 L 102 45 L 98 45 L 98 47 L 102 47 L 102 48 L 100 48 L 100 51 L 98 51 L 94 64 L 88 75 L 86 77 L 85 76 L 71 92 L 72 90 L 71 89 L 67 93 L 68 94 L 63 99 L 64 97 L 63 96 L 60 99 L 61 100 L 56 105 L 57 103 L 56 102 L 53 105 L 54 106 L 49 111 L 50 109 L 49 108 L 46 111 L 47 112 L 42 117 L 43 115 L 42 114 L 38 118 L 39 119 L 34 124 L 33 123 L 31 126 L 33 126 L 31 128 L 29 128 L 30 130 L 23 143 L 24 146 L 27 147 L 29 147 L 28 146 L 28 145 L 34 148 L 33 148 L 33 149 L 36 148 L 37 149 L 36 149 L 36 150 L 39 149 L 40 150 L 39 150 L 39 151 L 42 150 L 58 156 L 57 156 L 57 157 L 60 156 L 61 157 L 59 158 L 62 159 L 64 159 L 63 158 L 63 157 L 69 160 L 67 161 L 75 164 L 75 162 L 77 165 L 76 166 L 79 167 L 79 165 L 81 166 L 82 168 L 81 169 L 84 170 L 84 168 L 85 170 L 84 171 L 89 173 L 89 171 L 91 172 L 92 174 L 91 175 L 97 178 L 100 177 L 103 179 L 101 180 L 105 181 L 104 180 L 106 179 L 122 210 L 122 218 L 120 225 L 124 228 L 120 239 L 120 242 L 124 246 L 128 245 L 133 238 L 134 223 L 142 191 L 142 181 L 156 181 L 172 178 L 176 179 L 179 179 L 176 178 L 183 175 L 184 176 L 183 176 L 183 177 L 189 175 L 190 172 L 192 173 L 193 170 L 192 172 L 194 172 L 196 168 L 195 170 L 197 170 L 200 165 L 199 167 L 201 167 L 204 162 L 203 164 L 205 164 L 207 162 L 206 161 L 214 153 L 215 154 L 220 147 L 218 150 L 220 150 L 223 145 L 222 147 L 224 147 L 225 146 L 224 145 L 228 142 L 228 144 L 231 143 L 232 140 L 232 138 L 220 125 L 223 126 L 223 125 L 221 122 L 220 123 L 214 118 L 215 117 L 211 113 L 212 116 L 207 112 L 208 111 L 206 109 L 206 111 L 204 110 L 205 109 L 203 107 L 203 109 L 201 108 L 199 107 L 200 106 L 198 104 L 198 106 L 196 105 L 197 104 L 195 102 L 195 104 L 193 103 L 194 102 L 192 100 L 192 102 L 189 100 L 190 99 L 181 92 L 183 92 L 183 91 L 182 89 L 181 90 L 161 67 L 158 58 L 154 52 L 154 49 L 150 45 L 149 40 L 153 40 L 155 42 L 155 40 L 154 38 L 150 38 L 148 35 L 151 36 L 154 36 L 154 38 L 156 38 L 155 34 L 158 33 L 159 38 L 163 38 L 161 37 L 159 31 L 150 32 L 153 28 L 153 26 L 151 26 L 151 28 L 150 27 L 151 26 L 150 24 L 148 27 L 146 25 L 145 23 L 140 23 L 137 22 L 133 14 L 132 12 L 127 12 L 122 10 Z M 96 53 L 95 56 L 96 56 L 96 53 Z M 160 57 L 159 60 L 160 60 L 160 57 Z M 170 74 L 169 76 L 171 77 L 170 74 Z M 178 84 L 177 86 L 179 87 L 178 84 Z M 229 131 L 228 133 L 230 134 L 229 131 Z M 30 147 L 30 148 L 32 148 L 30 147 Z M 42 151 L 42 152 L 44 152 L 42 151 Z M 45 152 L 45 153 L 47 153 L 45 152 Z M 48 153 L 48 154 L 50 154 L 48 153 Z M 51 154 L 51 155 L 53 155 L 51 154 Z M 54 155 L 54 156 L 56 156 L 54 155 Z M 65 159 L 65 160 L 67 160 L 65 159 Z M 180 177 L 180 178 L 182 178 L 180 177 Z M 172 179 L 172 180 L 175 180 L 172 179 Z M 166 180 L 166 181 L 171 181 L 166 180 Z M 157 181 L 157 182 L 165 182 L 157 181 Z M 145 182 L 145 183 L 156 183 L 145 182 Z " /><path fill="rgb(0,0,0)" stroke="rgb(0,0,0)" stroke-width="1" opacity="0" d="M 84.5 78 L 81.5 82 L 84.5 78 Z " /><path fill="rgb(0,0,0)" stroke="rgb(0,0,0)" stroke-width="1" opacity="0" d="M 185.5 96 L 186.5 98 L 185.5 96 Z " /><path fill="rgb(0,0,0)" stroke="rgb(0,0,0)" stroke-width="1" opacity="0" d="M 124 181 L 127 181 L 127 189.5 L 126 189.5 L 124 181 Z " /><path fill="rgb(17,182,209)" stroke="rgb(17,182,209)" stroke-width="1" opacity="0.8941176470588236" d="M 154.5 53 L 155.5 55 L 154.5 53 Z " /><path fill="rgb(17,182,209)" stroke="rgb(17,182,209)" stroke-width="1" opacity="0.8941176470588236" d="M 89.5 73 L 88.5 75 L 89.5 73 Z " /><path fill="rgb(17,182,209)" stroke="rgb(17,182,209)" stroke-width="1" opacity="0.8941176470588236" d="M 166.5 74 L 168.5 77 L 166.5 74 Z " /><path fill="rgb(17,182,209)" stroke="rgb(17,182,209)" stroke-width="1" opacity="0.8941176470588236" d="M 87.5 76 L 75.5 89 L 87.5 76 Z " /><path fill="rgb(17,182,209)" stroke="rgb(17,182,209)" stroke-width="1" opacity="0.8941176470588236" d="M 170.5 79 L 172.5 82 L 170.5 79 Z " /><path fill="rgb(17,182,209)" stroke="rgb(17,182,209)" stroke-width="1" opacity="0.8941176470588236" d="M 174.5 84 L 176.5 87 L 174.5 84 Z " /><path fill="rgb(17,182,209)" stroke="rgb(17,182,209)" stroke-width="1" opacity="0.8941176470588236" d="M 178.5 89 L 180.5 92 L 178.5 89 Z " /><path fill="rgb(17,182,209)" stroke="rgb(17,182,209)" stroke-width="1" opacity="0.8941176470588236" d="M 71.5 91 L 67.5 96 L 71.5 91 Z " /><path fill="rgb(17,182,209)" stroke="rgb(17,182,209)" stroke-width="1" opacity="0.8941176470588236" d="M 182.5 94 L 188.5 101 L 182.5 94 Z " /><path fill="rgb(17,182,209)" stroke="rgb(17,182,209)" stroke-width="1" opacity="0.8941176470588236" d="M 63.5 98 L 59.5 103 L 63.5 98 Z " /><path fill="rgb(17,182,209)" stroke="rgb(17,182,209)" stroke-width="1" opacity="0.8941176470588236" d="M 191.5 102 L 192.5 104 L 191.5 102 Z " /><path fill="rgb(17,182,209)" stroke="rgb(17,182,209)" stroke-width="1" opacity="0.8941176470588236" d="M 56.5 104 L 53.5 108 L 56.5 104 Z " /><path fill="rgb(17,182,209)" stroke="rgb(17,182,209)" stroke-width="1" opacity="0.8941176470588236" d="M 194.5 104 L 195.5 106 L 194.5 104 Z " /><path fill="rgb(17,182,209)" stroke="rgb(17,182,209)" stroke-width="1" opacity="0.8941176470588236" d="M 197.5 106 L 198.5 108 L 197.5 106 Z " /><path fill="rgb(17,182,209)" stroke="rgb(17,182,209)" stroke-width="1" opacity="0.8941176470588236" d="M 202.5 109 L 203.5 111 L 202.5 109 Z " /><path fill="rgb(17,182,209)" stroke="rgb(17,182,209)" stroke-width="1" opacity="0.8941176470588236" d="M 49.5 110 L 46.5 114 L 49.5 110 Z " /><path fill="rgb(17,182,209)" stroke="rgb(17,182,209)" stroke-width="1" opacity="0.8941176470588236" d="M 205.5 111 L 207.5 114 L 205.5 111 Z " /><path fill="rgb(17,182,209)" stroke="rgb(17,182,209)" stroke-width="1" opacity="0.8941176470588236" d="M 209.5 114 L 221.5 127 L 209.5 114 Z " /><path fill="rgb(17,182,209)" stroke="rgb(17,182,209)" stroke-width="1" opacity="0.8941176470588236" d="M 42.5 116 L 33.5 126 L 42.5 116 Z " /><path fill="rgb(17,182,209)" stroke="rgb(17,182,209)" stroke-width="1" opacity="0.8941176470588236" d="M 32.5 127 L 30.5 130 L 32.5 127 Z " /><path fill="rgb(17,182,209)" stroke="rgb(17,182,209)" stroke-width="1" opacity="0.8941176470588236" d="M 224.5 130 L 227.5 134 L 224.5 130 Z " /><path fill="rgb(17,182,209)" stroke="rgb(17,182,209)" stroke-width="1" opacity="0.8941176470588236" d="M 28.5 133 L 28 134.5 L 25.5 140 L 25 138.5 L 28.5 133 Z " /><path fill="rgb(17,182,209)" stroke="rgb(17,182,209)" stroke-width="1" opacity="0.8941176470588236" d="M 229.5 136 L 232 138.5 L 230.5 140 L 229.5 136 Z " /><path fill="rgb(17,182,209)" stroke="rgb(17,182,209)" stroke-width="1" opacity="0.8941176470588236" d="M 228.5 140 L 227.5 142 L 228.5 140 Z " /><path fill="rgb(17,182,209)" stroke="rgb(17,182,209)" stroke-width="1" opacity="0.8941176470588236" d="M 223.5 143 L 222.5 145 L 223.5 143 Z " /><path fill="rgb(17,182,209)" stroke="rgb(17,182,209)" stroke-width="1" opacity="0.8941176470588236" d="M 220.5 145 L 218.5 148 L 220.5 145 Z " /><path fill="rgb(17,182,209)" stroke="rgb(17,182,209)" stroke-width="1" opacity="0.8941176470588236" d="M 216.5 148 L 203.5 162 L 216.5 148 Z " /><path fill="rgb(17,182,209)" stroke="rgb(17,182,209)" stroke-width="1" opacity="0.8941176470588236" d="M 73.5 160 L 74.5 162 L 73.5 160 Z " /><path fill="rgb(17,182,209)" stroke="rgb(17,182,209)" stroke-width="1" opacity="0.8941176470588236" d="M 77.5 163 L 78.5 165 L 77.5 163 Z " /><path fill="rgb(17,182,209)" stroke="rgb(17,182,209)" stroke-width="1" opacity="0.8941176470588236" d="M 200.5 163 L 199.5 165 L 200.5 163 Z " /><path fill="rgb(17,182,209)" stroke="rgb(17,182,209)" stroke-width="1" opacity="0.8941176470588236" d="M 82.5 166 L 83.5 168 L 82.5 166 Z " /><path fill="rgb(17,182,209)" stroke="rgb(17,182,209)" stroke-width="1" opacity="0.8941176470588236" d="M 196.5 166 L 195.5 168 L 196.5 166 Z " /><path fill="rgb(17,182,209)" stroke="rgb(17,182,209)" stroke-width="1" opacity="0.8941176470588236" d="M 193.5 168 L 192.5 170 L 193.5 168 Z " /><path fill="rgb(17,182,209)" stroke="rgb(17,182,209)" stroke-width="1" opacity="0.8941176470588236" d="M 87.5 169 L 88.5 171 L 87.5 169 Z " /><path fill="rgb(17,182,209)" stroke="rgb(17,182,209)" stroke-width="1" opacity="0.8941176470588236" d="M 188.5 171 L 187.5 173 L 184.5 174 L 184.5 173 L 188.5 171 Z " /><path fill="rgb(17,182,209)" stroke="rgb(17,182,209)" stroke-width="1" opacity="0.8941176470588236" d="M 170.5 177 L 173 177.5 L 170.5 178 L 170.5 177 Z " /><path fill="rgb(17,182,209)" stroke="rgb(17,182,209)" stroke-width="1" opacity="0.8941176470588236" d="M 164.5 178 L 168 178.5 L 164.5 179 L 164.5 178 Z " /><path fill="rgb(17,182,209)" stroke="rgb(17,182,209)" stroke-width="1" opacity="0.8941176470588236" d="M 154.5 179 L 160 179.5 L 154.5 180 L 154.5 179 Z " /><path fill="rgb(17,182,209)" stroke="rgb(17,182,209)" stroke-width="1" opacity="0.996078431372549" d="M 109.5 46 L 116.5 46 L 117 47.5 L 123.5 52 L 130.5 52 L 137.5 46 L 139.5 46 L 142.5 48 L 149.5 49 L 154 52.5 L 158 60.5 L 156.5 61 L 150.5 58 L 143.5 58 L 129.5 53 L 124.5 53 L 119.5 55 L 101.5 55 L 98 56 L 101.5 50 L 109.5 46 Z " /><path fill="rgb(17,182,209)" stroke="rgb(17,182,209)" stroke-width="1" opacity="0.996078431372549" d="M 93.5 66 L 94 67.5 L 87 89.5 L 81 122.5 L 88.5 126 L 93 121.5 L 93 118.5 L 91 114.5 L 91 108.5 L 99 86.5 L 106.5 73 L 109 85.5 L 109 95.5 L 98 129.5 L 100 131.5 L 102 166.5 L 105 177.5 L 103.5 177 L 89.5 171 L 69.5 158 L 25 143 L 30 130.5 L 45.5 114 L 75.5 89 L 88 76.5 L 93.5 66 Z " /><path fill="rgb(17,182,209)" stroke="rgb(17,182,209)" stroke-width="1" opacity="0.996078431372549" d="M 145 72 L 157 81.5 L 161 87.5 L 166 101.5 L 166 114.5 L 163 119.5 L 163 122.5 L 166.5 127 L 171.5 127 L 178 122.5 L 175 115.5 L 174 91.5 L 167 76.5 L 170 78.5 L 188.5 101 L 208.5 114 L 224 129.5 L 231 138.5 L 216.5 148 L 197.5 166 L 181.5 175 L 163.5 179 L 143 180 L 143 162.5 L 147 144.5 L 148 130 L 155 127 L 154 120.5 L 146 99.5 L 141 92.5 L 141 83.5 L 142 82.5 L 142 77.5 L 145 72 Z " /><path fill="rgb(17,182,209)" stroke="rgb(17,182,209)" stroke-width="1" opacity="0.996078431372549" d="M 122 136 L 127 136 L 127 150.5 L 126 151.5 L 126 173.5 L 127 180 L 123 178.5 L 122 173.5 L 118 168.5 L 118 166.5 L 119 165.5 L 119 156.5 L 120 155.5 L 120 148.5 L 122 136 Z " /><path fill="rgb(6,184,216)" stroke="rgb(6,184,216)" stroke-width="1" opacity="0.0784313725490196" d="M 98.5 49 L 99 51.5 L 97.5 55 L 96.5 53 L 96 55.5 L 96.5 57 L 94 56.5 L 98.5 49 Z " /><path fill="rgb(6,184,216)" stroke="rgb(6,184,216)" stroke-width="1" opacity="0.0784313725490196" d="M 154.5 52 L 158 53.5 L 161 61.5 L 159 62.5 L 160 60.5 L 158 60.5 L 159 57.5 L 158 57.5 L 157.5 59 L 157 57.5 L 158 55.5 L 156 55.5 L 157 53.5 L 155.5 54 L 154.5 52 Z " /><path fill="rgb(6,184,216)" stroke="rgb(6,184,216)" stroke-width="1" opacity="0.0784313725490196" d="M 91.5 64 L 93 66.5 L 91 66.5 L 92 68.5 L 90 68.5 L 91 70.5 L 89 70.5 L 90 72.5 L 87 73.5 L 88 75.5 L 81 81.5 L 72.5 91 L 71.5 90 L 70 91.5 L 64.5 98 L 63.5 97 L 62 98.5 L 57.5 104 L 56.5 103 L 55 104.5 L 50.5 110 L 49.5 109 L 48 110.5 L 43.5 116 L 42.5 115 L 41 116.5 L 33.5 125 L 32 125.5 L 33 126.5 L 30.5 129 L 29 129.5 L 29.5 131 L 28 130.5 L 29 132.5 L 26 133.5 L 27 135.5 L 25 135.5 L 26 137.5 L 24 137.5 L 25 140.5 L 24 140.5 L 23.5 139 L 22.5 141 L 22 139.5 L 31 124.5 L 41.5 114 L 71.5 89 L 86 74.5 L 91.5 64 Z " /><path fill="rgb(6,184,216)" stroke="rgb(6,184,216)" stroke-width="1" opacity="0.0784313725490196" d="M 163.5 69 L 167 70.5 L 183 91.5 L 191.5 100 L 206.5 109 L 223 124.5 L 234 138.5 L 233 138.5 L 232.5 137 L 231.5 138 L 228 134.5 L 228 132.5 L 227.5 131 L 226.5 132 L 222 127.5 L 223 126.5 L 220.5 124 L 212 116.5 L 209.5 113 L 208.5 114 L 206 111.5 L 205.5 110 L 204.5 111 L 203 109.5 L 202.5 108 L 201 108.5 L 201.5 107 L 199.5 108 L 197.5 105 L 196.5 106 L 195 104.5 L 194.5 103 L 193.5 104 L 192 102.5 L 191.5 101 L 190.5 102 L 187 98.5 L 185.5 96 L 181 92.5 L 181.5 91 L 177 87.5 L 177 85.5 L 176.5 84 L 175.5 85 L 173 82.5 L 173 80.5 L 172.5 79 L 171.5 80 L 169 77.5 L 169 75.5 L 168.5 74 L 167.5 75 L 165 72.5 L 166 70.5 L 164.5 71 L 163.5 69 Z " /><path fill="rgb(6,184,216)" stroke="rgb(6,184,216)" stroke-width="1" opacity="0.0784313725490196" d="M 231.5 139 L 232 141.5 L 230.5 143 L 222.5 147 L 204.5 164 L 184.5 177 L 164.5 182 L 144.5 183 L 144.5 182 L 156 181.5 L 146 180.5 L 155.5 180 L 156.5 181 L 164.5 181 L 164.5 180 L 160 179.5 L 164.5 179 L 165.5 180 L 170.5 180 L 170.5 179 L 168 178.5 L 170.5 178 L 174.5 179 L 174.5 178 L 173 177.5 L 175.5 177 L 178.5 178 L 178.5 177 L 177 176.5 L 178.5 176 L 181.5 177 L 181.5 176 L 180 175.5 L 181.5 175 L 183.5 176 L 183.5 174 L 185.5 175 L 186.5 173 L 188 173.5 L 189.5 171 L 191.5 170 L 193 170.5 L 194.5 168 L 196 168.5 L 198.5 165 L 200 165.5 L 202.5 162 L 204 162.5 L 217.5 148 L 218.5 149 L 220 147.5 L 221.5 145 L 223 145.5 L 224.5 143 L 226.5 144 L 226.5 142 L 228 142.5 L 229.5 140 L 231.5 139 Z " /><path fill="rgb(6,184,216)" stroke="rgb(6,184,216)" stroke-width="1" opacity="0.0784313725490196" d="M 21.5 142 L 24.5 143 L 28 144.5 L 27.5 146 L 30.5 145 L 30.5 146 L 29 146.5 L 31.5 147 L 33 146.5 L 32.5 148 L 35.5 147 L 35.5 149 L 38.5 148 L 38.5 150 L 41.5 149 L 41.5 151 L 44.5 150 L 44.5 152 L 47.5 151 L 47.5 153 L 50.5 152 L 50.5 154 L 53.5 153 L 53.5 155 L 56.5 154 L 56.5 156 L 59.5 155 L 59.5 157 L 62.5 156 L 62.5 158 L 65.5 157 L 65.5 158 L 64 158.5 L 66.5 159 L 68 158.5 L 67.5 160 L 70.5 159 L 74 161.5 L 74.5 163 L 75.5 162 L 78 164.5 L 78.5 166 L 80 165.5 L 79.5 167 L 81.5 166 L 83.5 169 L 85.5 169 L 88 170.5 L 88.5 172 L 90 171.5 L 89.5 173 L 91.5 172 L 100 176.5 L 99.5 178 L 101.5 177 L 101.5 179 L 104.5 178 L 104.5 181 L 92.5 176 L 66.5 160 L 24 146 L 23.5 143 L 22.5 144 L 21.5 142 Z " /><path fill="rgb(6,184,216)" stroke="rgb(6,184,216)" stroke-width="1" opacity="0.0784313725490196" d="M 124.5 180 L 127 180.5 L 124.5 181 L 124.5 180 Z " /><path fill="rgb(50,49,50)" stroke="rgb(50,49,50)" stroke-width="1" opacity="0.984313725490196" d="M 121.5 10 L 126.5 12 L 131.5 12 L 133 13.5 L 137 22 L 139.5 23 L 144.5 23 L 146 24.5 L 147.5 27 L 149.5 24 L 153 26 L 150 32 L 158.5 31 L 161 37 L 163 37.5 L 159 38 L 157.5 33 L 155 34 L 156 38 L 154 38.5 L 155 41.5 L 152.5 40 L 149 40 L 149 42.5 L 154 48.5 L 154 50.5 L 151.5 49 L 137.5 45 L 130.5 51 L 123.5 51 L 118 47.5 L 118 46 L 116.5 46 L 115.5 45 L 109.5 45 L 104.5 49 L 100.5 50 L 101.5 47 L 98 47 L 98 45 L 101.5 45 L 105 42.5 L 100.5 42 L 99 40.5 L 103 40 L 102.5 36 L 100.5 39 L 99 36.5 L 100 33 L 97 31.5 L 97 30 L 101.5 30 L 112 20.5 L 119.5 11 L 121.5 10 Z M 148 35 L 150 38 L 154 38 L 154 36 L 148 35 Z " /><path fill="rgb(50,49,50)" stroke="rgb(50,49,50)" stroke-width="1" opacity="0.984313725490196" d="M 123.5 54 L 130.5 54 L 144.5 59 L 151.5 59 L 160 63.5 L 173 90.5 L 174 114.5 L 177 122.5 L 169.5 127 L 165 124.5 L 164 119.5 L 167 112.5 L 167 102.5 L 161 85.5 L 146.5 71 L 144 72.5 L 141 78.5 L 140 92.5 L 146 101.5 L 154 123.5 L 154 127 L 147 130.5 L 147 139.5 L 142 163.5 L 142 190.5 L 134 222.5 L 133 237.5 L 127.5 245 L 123.5 246 L 120 241.5 L 120 238.5 L 124 227.5 L 120 224.5 L 122 217.5 L 122 209.5 L 105 176.5 L 102 159.5 L 101 131.5 L 99 127.5 L 109 98.5 L 110 87.5 L 109 86.5 L 108 74.5 L 106.5 72 L 101 80.5 L 94 96.5 L 90 109.5 L 90 114.5 L 92 117.5 L 92 121.5 L 88.5 125 L 86.5 125 L 81 121.5 L 83 117.5 L 91 76.5 L 95 66.5 L 95 59.5 L 97.5 57 L 100.5 56 L 118.5 56 L 123.5 54 Z M 121 135 L 119 159 L 118 160 L 118 170 L 122 176 L 127 190 L 127 146 L 128 145 L 128 135 L 121 135 Z " /></svg>