<?xml version="1.0" encoding="UTF-8" standalone="no"?>
<!-- Created with Inkscape (http://www.inkscape.org/) -->

<svg
   width="210mm"
   height="297mm"
   viewBox="0 0 210 297"
   version="1.1"
   id="svg5"
   xml:space="preserve"
   inkscape:version="1.2.2 (732a01da63, 2022-12-09, custom)"
   sodipodi:docname="SolarDnaBoldDuotone.svg"
   xmlns:inkscape="http://www.inkscape.org/namespaces/inkscape"
   xmlns:sodipodi="http://sodipodi.sourceforge.net/DTD/sodipodi-0.dtd"
   xmlns="http://www.w3.org/2000/svg"
   xmlns:svg="http://www.w3.org/2000/svg"><sodipodi:namedview
     id="namedview7"
     pagecolor="#ffffff"
     bordercolor="#999999"
     borderopacity="1"
     inkscape:showpageshadow="0"
     inkscape:pageopacity="0"
     inkscape:pagecheckerboard="0"
     inkscape:deskcolor="#d1d1d1"
     inkscape:document-units="mm"
     showgrid="false"
     inkscape:zoom="8.5670232"
     inkscape:cx="393.31048"
     inkscape:cy="442.97767"
     inkscape:window-width="1920"
     inkscape:window-height="1043"
     inkscape:window-x="1920"
     inkscape:window-y="0"
     inkscape:window-maximized="1"
     inkscape:current-layer="g29" /><defs
     id="defs2" /><g
     inkscape:label="Layer 1"
     inkscape:groupmode="layer"
     id="layer1"><g
       fill="currentColor"
       id="g29"
       transform="matrix(0.35277778,0,0,0.35277778,87.461519,111.33244)"><path
         fill-rule="evenodd"
         d="m 15.03,1.47 a 0.75,0.75 0 0 1 0,1.06 c -2.558,2.558 -3.523,6.113 -2.591,9.031 2.918,0.932 6.473,-0.033 9.03,-2.591 a 0.75,0.75 0 1 1 1.061,1.06 c -2.622,2.623 -6.264,3.854 -9.556,3.213 0.75,3.175 -0.4,6.744 -2.944,9.287 A 0.75,0.75 0 1 1 8.97,21.47 c 2.416,-2.417 3.3,-5.788 2.36,-8.516 L 11.258,12.742 11.046,12.67 C 8.319,11.73 4.947,12.614 2.53,15.03 A 0.75,0.75 0 0 1 1.47,13.97 c 2.543,-2.544 6.112,-3.694 9.287,-2.944 -0.64,-3.292 0.59,-6.934 3.213,-9.556 a 0.75,0.75 0 0 1 1.06,0 z"
         clip-rule="evenodd"
         id="path25"
         style="fill:#241f1c" /><path
         d="M 20.085,10.136 16.809,6.86 a 0.75024029,0.75024029 0 0 0 -1.061,1.061 l 3.008,3.008 c 0.455,-0.226 0.9,-0.491 1.329,-0.793 z M 13.108,5.17 14.056,6.117 a 0.75,0.75 0 1 0 1.06,-1.06 L 13.91,3.85 C 13.606,4.275 13.338,4.717 13.108,5.17 Z M 10.897,18.724 9.835,17.66 a 0.75,0.75 0 0 0 -1.06,1.06 l 1.353,1.354 a 9.39,9.39 0 0 0 0.77,-1.351 z M 3.857,13.918 6.97,17.031 A 0.75,0.75 0 0 0 8.03,15.97 L 5.2,13.139 a 9.41,9.41 0 0 0 -1.343,0.78 z m 2.644,-1.278 4.812,4.812 a 0.5,0.5 0 0 0 0.048,0.044 8.216,8.216 0 0 0 0.322,-1.795 L 8.3,12.317 A 8.22,8.22 0 0 0 6.501,12.64 Z M 17.55,11.431 A 0.751,0.751 0 0 0 17.453,11.313 L 12.575,6.435 a 9.099,9.099 0 0 0 -0.407,1.714 l 3.683,3.683 a 9.095,9.095 0 0 0 1.698,-0.4 z"
         opacity="0.5"
         id="path27"
         style="fill:#ffcc00" /></g></g></svg>
